<svg xmlns="http://www.w3.org/2000/svg" xmlns:xlink="http://www.w3.org/1999/xlink" viewBox="0 0 130.06 228.49"><defs><style>.cls-1{fill:#2d86ad;}.cls-2,.cls-4,.cls-6{fill:none;stroke-width:0.45px;}.cls-2{stroke:#2d86ad;}.cls-2,.cls-4,.cls-6,.cls-7{stroke-miterlimit:10;}.cls-3{fill:#3698d4;}.cls-4{stroke:#3698d4;}.cls-5{fill:#2d8cbf;}.cls-6{stroke:#2d8cbf;}.cls-7{stroke:#000;stroke-width:0.75px;fill:url(#未命名的渐变_19);}</style><linearGradient id="未命名的渐变_19" x1="39.43" y1="77.86" x2="129.58" y2="77.86" gradientUnits="userSpaceOnUse"><stop offset="0" stop-color="#ff914a"/><stop offset="1" stop-color="#ff6b46"/></linearGradient></defs><title>牌子</title><g id="图层_2" data-name="图层 2"><g id="图层_1-2" data-name="图层 1"><polygon class="cls-1" points="28.2 0.34 0.23 216.06 10.65 227.96 33.86 28.47 37.13 0.34 28.2 0.34"/><polygon class="cls-2" points="28.2 0.34 0.23 216.06 10.65 227.96 33.86 28.47 37.13 0.34 28.2 0.34"/><polygon class="cls-3" points="36.84 0.34 86.97 24.94 117.47 39.91 104.68 205.05 75.01 212.26 10.36 227.96 36.84 0.34"/><polygon class="cls-4" points="37.13 0.34 87.26 24.94 117.77 39.91 104.97 205.05 75.31 212.26 10.65 227.96 37.13 0.34"/><polygon class="cls-5" points="75.31 212.26 104.97 205.05 117.77 39.91 92.2 27.36 75.31 212.26"/><polygon class="cls-6" points="75.31 212.26 104.97 205.05 117.77 39.91 92.2 27.36 75.31 212.26"/><path class="cls-7" d="M46.42,129.67a6.54,6.54,0,0,1-4.16-.94c-.55-.37-2.24-1.66-2.83-5.21L46.27,8.08,54.4,30.59,66.9,15.51,52.82,113.71l62.34,8.93.9-11.66,13.53,18.72-16,17.94,1-14.17Z"/></g></g></svg>