<?xml version="1.0" encoding="utf-8"?>
<!-- Generator: Adobe Illustrator 21.0.0, SVG Export Plug-In . SVG Version: 6.00 Build 0)  -->
<svg version="1.1" id="图层_1" xmlns="http://www.w3.org/2000/svg" xmlns:xlink="http://www.w3.org/1999/xlink" x="0px" y="0px"
	 viewBox="0 0 562 344" style="enable-background:new 0 0 562 344;" xml:space="preserve">
<style type="text/css">
	.st0{display:none;opacity:0.96;}
	.st1{display:inline;}
	.st2{clip-path:url(#SVGID_2_);fill:#00355D;}
	.st3{fill:none;}
	.st4{display:none;enable-background:new    ;}
	.st5{clip-path:url(#SVGID_4_);}
	.st6{clip-path:url(#SVGID_6_);enable-background:new    ;}
	.st7{clip-path:url(#SVGID_8_);fill:#001D34;}
	.st8{clip-path:url(#SVGID_8_);fill:#001E35;}
	.st9{clip-path:url(#SVGID_8_);fill:#001F37;}
	.st10{clip-path:url(#SVGID_8_);fill:#002039;}
	.st11{clip-path:url(#SVGID_8_);fill:#00213B;}
	.st12{clip-path:url(#SVGID_8_);fill:#00223D;}
	.st13{clip-path:url(#SVGID_8_);fill:#00233E;}
	.st14{clip-path:url(#SVGID_8_);fill:#002440;}
	.st15{clip-path:url(#SVGID_8_);fill:#001C32;}
	.st16{clip-path:url(#SVGID_8_);fill:#001B30;}
	.st17{clip-path:url(#SVGID_8_);fill:#001A2E;}
	.st18{fill:#137FB1;}
	.st19{fill:none;stroke:#41434D;stroke-width:0.8242;stroke-miterlimit:10;}
	.st20{fill:#C59F65;}
	.st21{fill:none;stroke:#41434D;stroke-width:0.4121;stroke-miterlimit:10;}
	.st22{fill:none;stroke:#9E7846;stroke-width:0.8242;stroke-miterlimit:10;}
	.st23{fill:#05587D;}
	.st24{fill:none;stroke:#41434D;stroke-width:0.6181;stroke-miterlimit:10;}
	.st25{fill:none;stroke:#41434D;stroke-width:0.206;stroke-miterlimit:10;}
	.st26{fill:#338CA8;}
	.st27{fill:#5E524C;}
	.st28{fill:#82A7A4;}
	.st29{fill:#41434D;}
	.st30{fill:none;stroke:#137FB1;stroke-width:0.206;stroke-miterlimit:10;}
	.st31{fill:#AD9F81;}
	.st32{fill:#9B999E;}
	.st33{fill:#5C5351;}
	.st34{fill:#408DB3;}
	.st35{fill:#444C59;}
	.st36{fill:#1380B3;}
	.st37{fill:#08597B;}
	.st38{fill:#AEA67F;}
	.st39{fill:#E6E1C7;}
	.st40{fill:#464343;}
	.st41{fill:#ACA192;}
	.st42{fill:#ADC0B4;}
	.st43{fill:#FFFFFF;}
	.st44{clip-path:url(#SVGID_10_);fill:url(#SVGID_11_);}
	.st45{clip-path:url(#SVGID_13_);fill:url(#SVGID_14_);}
	.st46{clip-path:url(#SVGID_16_);fill:url(#SVGID_17_);}
	.st47{clip-path:url(#SVGID_19_);fill:url(#SVGID_20_);}
	.st48{clip-path:url(#SVGID_22_);fill:url(#SVGID_23_);}
	.st49{fill:#388CAD;}
	.st50{fill:#095B7D;}
	.st51{fill:#003E5F;}
	.st52{fill:#00253F;}
	.st53{fill:#5C585C;}
	.st54{fill:#373435;}
	.st55{opacity:0;}
	.st56{clip-path:url(#SVGID_25_);fill:#8C9193;}
	.st57{clip-path:url(#SVGID_25_);fill:none;stroke:#000000;stroke-width:0.206;stroke-miterlimit:10;}
	.st58{clip-path:url(#SVGID_27_);fill:#474343;}
	.st59{clip-path:url(#SVGID_27_);fill:none;stroke:#000000;stroke-width:0.206;stroke-miterlimit:10;}
	.st60{clip-path:url(#SVGID_29_);fill:#474343;}
	.st61{clip-path:url(#SVGID_29_);fill:none;stroke:#000000;stroke-width:0.206;stroke-miterlimit:10;}
	.st62{clip-path:url(#SVGID_31_);fill:#474343;}
	.st63{clip-path:url(#SVGID_31_);fill:none;stroke:#000000;stroke-width:0.206;stroke-miterlimit:10;}
	.st64{fill:#46474B;}
	.st65{fill:none;stroke:#000000;stroke-width:0.206;stroke-miterlimit:10;}
	.st66{fill:#DB9B3E;}
	.st67{fill:#1279AC;}
</style>
<g class="st0">
	<g class="st1">
		<defs>
			<rect id="SVGID_1_" x="7.3" y="-256.7" width="1233.8" height="349.8"/>
		</defs>
		<clipPath id="SVGID_2_">
			<use xlink:href="#SVGID_1_"  style="overflow:visible;"/>
		</clipPath>
		<path class="st2" d="M1241.1-93.8C1243,2.6,968.3,86.1,627.6,92.7C286.9,99.3,9.2,26.5,7.3-69.8
			c-1.9-96.4,272.8-179.9,613.5-186.5C961.5-262.9,1239.2-190.1,1241.1-93.8"/>
	</g>
</g>
<g id="图层_2">
</g>
<rect x="-447" y="-731.3" class="st3" width="2190" height="1231.9"/>
<g class="st4">
	<g class="st1">
		<defs>
			<rect id="SVGID_3_" x="-15.3" y="-85.5" width="1314.8" height="484.1"/>
		</defs>
		<clipPath id="SVGID_4_">
			<use xlink:href="#SVGID_3_"  style="overflow:visible;"/>
		</clipPath>
		<g class="st5">
			<defs>
				<path id="SVGID_5_" d="M1299.5-85.5v285.9c0,88-220,166.8-517.4,190.7c-38.3,3.1-77.8,5.3-118.3,6.4c-23,0.7-45.8,1-68.3,1
					c-332,0-599.2-71-610.5-166.4c-0.2-2.1-0.4-4.1-0.4-6.2V-59.9c0,2.1,0.1,4.1,0.4,6.2c11.2,95.4,278.5,166.4,610.5,166.4
					c22.5,0,45.3-0.3,68.3-1c40.5-1.2,80.1-3.3,118.3-6.4C1079.6,81.3,1299.5,2.5,1299.5-85.5"/>
			</defs>
			<clipPath id="SVGID_6_">
				<use xlink:href="#SVGID_5_"  style="overflow:visible;"/>
			</clipPath>
			<g class="st6">
				<g>
					<defs>
						<rect id="SVGID_7_" x="-15.3" y="-85.5" width="1314.8" height="484.1"/>
					</defs>
					<clipPath id="SVGID_8_">
						<use xlink:href="#SVGID_7_"  style="overflow:visible;"/>
					</clipPath>
					<path class="st7" d="M1299.5-85.5v285.9c0,0.4,0,0.7,0,1.1V-84.4C1299.5-84.7,1299.5-85.1,1299.5-85.5"/>
					<path class="st8" d="M1299.5-84.4v285.9c-0.1,3.1-0.4,6.1-1,9.1V-75.2C1299.1-78.3,1299.5-81.3,1299.5-84.4"/>
					<path class="st9" d="M1298.5-75.2v285.9c-0.6,3-1.4,6-2.5,9.1V-66.2C1297.1-69.2,1298-72.2,1298.5-75.2"/>
					<path class="st10" d="M1296-66.2v285.9c-1.2,3.3-2.7,6.6-4.5,9.9V-56.3C1293.3-59.6,1294.8-62.9,1296-66.2"/>
					<path class="st11" d="M1291.5-56.3v285.9c-2.1,3.7-4.5,7.4-7.4,11.1V-45.2C1286.9-48.9,1289.4-52.6,1291.5-56.3"/>
					<path class="st12" d="M1284.1-45.2v285.9c-3.6,4.7-7.8,9.3-12.6,13.8V-31.4C1276.3-36,1280.5-40.6,1284.1-45.2"/>
					<path class="st13" d="M1271.5-31.4v285.9c-8,7.6-17.6,15-28.7,22.2V-9.2C1253.9-16.4,1263.5-23.8,1271.5-31.4"/>
					<path class="st14" d="M1242.7-9.2v285.9c-35.9,23.3-87.5,44.6-151.1,62.6V53.4C1155.2,35.4,1206.8,14.1,1242.7-9.2"/>
					<path class="st13" d="M1091.6,53.4v285.9c-44,12.5-93.8,23.4-148,32.3V85.7C997.9,76.8,1047.6,65.9,1091.6,53.4"/>
					<path class="st12" d="M943.7,85.7v285.9C899,379,851.4,385,801.4,389.5V103.6C851.4,99.1,899,93.1,943.7,85.7"/>
					<path class="st11" d="M801.4,103.6v285.9c-6.4,0.6-12.7,1.1-19.2,1.6c-38.3,3.1-77.8,5.3-118.3,6.4c-1.5,0-3.1,0.1-4.6,0.1
						V111.8c1.5,0,3.1-0.1,4.6-0.1c40.5-1.2,80.1-3.3,118.3-6.4C788.6,104.7,795,104.2,801.4,103.6"/>
					<path class="st10" d="M659.2,111.8v285.9c-21.4,0.6-42.7,0.9-63.7,0.9c-23.2,0-46-0.3-68.5-1V111.6c22.5,0.7,45.3,1,68.5,1
						C616.5,112.7,637.8,112.4,659.2,111.8"/>
					<path class="st9" d="M527.1,111.6v285.9c-40-1.2-78.8-3.4-116-6.6V105C448.3,108.2,487.1,110.4,527.1,111.6"/>
					<path class="st8" d="M411.1,105v285.9c-34.5-3-67.6-6.8-99.1-11.3V93.7C343.5,98.2,376.6,102,411.1,105"/>
					<path class="st7" d="M312,93.7v285.9c-29.2-4.2-57.1-9.1-83.3-14.5V79.2C254.9,84.6,282.7,89.5,312,93.7"/>
					<path class="st15" d="M228.7,79.2v285.9c-24.8-5.2-48.1-10.9-69.8-17V62.2C180.5,68.3,203.9,74,228.7,79.2"/>
					<path class="st16" d="M158.9,62.2v285.9c-21.9-6.2-42.1-13-60.4-20.2V42C116.8,49.2,137,55.9,158.9,62.2"/>
					<path class="st17" d="M98.5,42v285.9c-67.8-26.7-109.1-59.4-113.4-95.7c-0.2-2.1-0.4-4.1-0.4-6.2V-59.9c0,2.1,0.1,4.1,0.4,6.2
						C-10.7-17.4,30.7,15.3,98.5,42"/>
				</g>
			</g>
		</g>
	</g>
</g>
<g>
	<polygon class="st18" points="77.8,179.8 78.8,143.2 191.2,92.1 191.9,126.4 	"/>
	<polygon class="st19" points="77.8,179.8 78.8,143.2 191.2,92.1 191.9,126.4 	"/>
	<polygon class="st20" points="135.4,117 164.3,125.9 172,122.1 146.5,112.4 	"/>
	<polygon class="st21" points="135.4,117 164.3,125.9 172,122.1 146.5,112.4 	"/>
	<line class="st22" x1="143" y1="114.9" x2="168" y2="124.1"/>
	<path class="st18" d="M120.1,105.8c-27.8,10.7-46.7,31.5-41.3,37.4l112.4-51.1C174.2,90.4,145.6,96,120.1,105.8"/>
	<path class="st19" d="M120.1,105.8c-27.8,10.7-46.7,31.5-41.3,37.4l111.7-50.8C179.7,90.2,145.6,96,120.1,105.8z"/>
	<polyline class="st23" points="126.2,294 113.9,193 238.2,116.7 239,123.8 274.3,103.4 273.2,94.6 339.1,55.8 350.7,130.6 
		126.2,294 	"/>
	<polyline class="st21" points="126.2,294 113.9,193 238.2,116.7 239,123.8 274.3,103.4 273.2,94.6 339.1,55.8 350.7,130.6 
		126.2,294 	"/>
	<polygon class="st18" points="49.8,185.8 291.1,51.1 339.1,55.8 273.2,94.6 274.3,103.4 239,123.8 238.2,116.7 113.9,193 	"/>
	<polygon class="st24" points="49.8,185.8 291.1,51.1 339.1,55.8 273.2,94.6 274.3,103.4 239,123.8 238.2,116.7 113.9,193 	"/>
	<polyline class="st18" points="61.4,281.5 49.8,185.8 113.9,193 126.2,294 	"/>
	<polyline class="st25" points="61.4,281.5 49.8,185.8 113.9,193 126.2,294 	"/>
	<polygon class="st26" points="209.1,112.6 231.3,99.8 274.3,103.4 239,123.8 238.2,116.7 	"/>
	<polygon class="st24" points="209.1,112.6 231.3,99.8 274.3,103.4 239,123.8 238.2,116.7 	"/>
	<polygon class="st27" points="199.7,110.9 231.9,92.3 273.2,94.6 274.3,103.4 232.8,99.6 209.1,112.6 	"/>
	<polygon class="st25" points="199.7,110.9 231.9,92.3 273.2,94.6 274.3,103.4 232.8,99.6 209.1,112.6 	"/>
	<line class="st18" x1="231.9" y1="92.3" x2="232.8" y2="99.6"/>
	<line class="st25" x1="231.9" y1="92.3" x2="232.8" y2="99.6"/>
	<path class="st28" d="M223,109.9l0.4-16.8l-4.2,0.1l-0.4,16.8c-0.1,0.1,0.9,0.9,2.1,0.9C222.1,110.8,223.1,109.9,223,109.9"/>
	<polygon class="st18" points="249.2,88.5 228.8,102.5 198.7,100 219.7,86.6 	"/>
	<polygon class="st25" points="249.2,88.5 228.8,102.5 198.7,100 219.7,86.6 	"/>
	<polygon class="st18" points="249,87 228.6,101.1 198.6,98.6 219.5,85.2 	"/>
	<polygon class="st25" points="249,87 228.6,101.1 198.6,98.6 219.5,85.2 	"/>
	<polygon class="st29" points="249.2,88.5 249,87 228.6,101.1 198.6,98.6 198.7,100 228.8,102.5 	"/>
	<polygon class="st30" points="249.2,88.5 249,87 228.6,101.1 198.6,98.6 198.7,100 228.8,102.5 	"/>
	<polygon class="st31" points="156.6,181.6 168.1,174.4 170.6,194.7 159,201 	"/>
	<polygon class="st25" points="156.6,181.6 168.1,174.4 170.6,194.7 159,201 	"/>
	<polygon class="st31" points="163,211.4 174.5,204.2 177,224.5 165.3,230.9 	"/>
	<polygon class="st25" points="163,211.4 174.5,204.2 177,224.5 165.3,230.9 	"/>
	<polygon class="st31" points="174.6,171.1 186.2,163.9 188.6,184.2 177,190.5 	"/>
	<polygon class="st25" points="174.6,171.1 186.2,163.9 188.6,184.2 177,190.5 	"/>
	<polygon class="st31" points="179.6,200.7 191.1,193.5 193.6,213.8 182,220.2 	"/>
	<polygon class="st25" points="179.6,200.7 191.1,193.5 193.6,213.8 182,220.2 	"/>
	<polygon class="st31" points="194.3,157.9 205.8,150.8 208.3,171 196.6,177.4 	"/>
	<polygon class="st25" points="194.3,157.9 205.8,150.8 208.3,171 196.6,177.4 	"/>
	<polygon class="st31" points="215,144 226.5,136.8 229,157.1 217.4,163.4 	"/>
	<polygon class="st25" points="215,144 226.5,136.8 229,157.1 217.4,163.4 	"/>
	<polygon class="st31" points="233.9,132.2 245.4,125.1 247.9,145.3 236.2,151.7 	"/>
	<polygon class="st25" points="233.9,132.2 245.4,125.1 247.9,145.3 236.2,151.7 	"/>
	<polygon class="st31" points="268.2,110.4 279.8,103.2 282.2,123.5 270.6,129.8 	"/>
	<polygon class="st25" points="268.2,110.4 279.8,103.2 282.2,123.5 270.6,129.8 	"/>
	<polygon class="st31" points="286.7,98.5 298.2,91.4 300.7,111.6 289,118 	"/>
	<polygon class="st25" points="286.7,98.5 298.2,91.4 300.7,111.6 289,118 	"/>
	<polygon class="st31" points="305.1,86.2 316.6,79.1 319.1,99.3 307.4,105.7 	"/>
	<polygon class="st25" points="305.1,86.2 316.6,79.1 319.1,99.3 307.4,105.7 	"/>
	<path class="st32" d="M329.8,68.3c-0.8,0.3-1.3,1-2.3,2.5c-0.3,0.5-0.9,1.3-1.3,2.5c-0.4,1.1-0.5,2-0.7,3.2
		c-0.1,0.6-0.1,1.3-0.1,2.1c0,0.3,0.1,0.6,0.1,0.8c0.1,0.4,0.2,0.9,0.6,1.4c0.1,0.1,0.2,0.2,0.8,0.8c0.6,0.5,0.9,0.8,1.2,1
		c1.2,0.8,2.5,1,3.1,1.1c0.6,0.1,1.5,0.2,2.6-0.1c0.5-0.1,1.4-0.4,2.4-1.2c0.8-0.6,1.2-1.2,1.5-1.7c0.3-0.5,0.6-1,0.7-1.3
		c0.3-0.6,0.6-1.4,0.6-2.3c0,0,0-0.5-0.1-1.1c-0.3-1.4-1.7-4-5.1-6.1C332.2,68.7,331,67.9,329.8,68.3"/>
	<path class="st33" d="M337.7,76.5c0.4,2.9-1.7,5.5-4.6,5.8c-2.9,0.4-5.5-1.7-5.8-4.6c-0.4-2.9,1.7-5.5,4.6-5.8
		C334.7,71.6,337.4,73.7,337.7,76.5"/>
	<path class="st32" d="M134.5,192.1c-0.8,0.3-1.3,1-2.3,2.5c-0.3,0.5-0.9,1.3-1.3,2.5c-0.4,1.1-0.5,2-0.7,3.2
		c-0.1,0.6-0.1,1.3-0.1,2.1c0,0.3,0.1,0.6,0.1,0.8c0.1,0.4,0.2,0.9,0.6,1.4c0.1,0.1,0.2,0.2,0.8,0.8c0.6,0.5,0.9,0.8,1.2,1
		c1.2,0.8,2.5,1,3.1,1.1c0.6,0.1,1.5,0.2,2.6-0.1c0.5-0.1,1.4-0.4,2.4-1.2c0.8-0.6,1.2-1.2,1.5-1.7c0.3-0.5,0.6-1,0.7-1.3
		c0.3-0.6,0.6-1.4,0.6-2.3c0,0,0-0.5-0.1-1.1c-0.3-1.4-1.7-4-5.1-6.1C136.9,192.5,135.7,191.7,134.5,192.1"/>
	<path class="st33" d="M142.4,200.3c0.4,2.9-1.7,5.5-4.6,5.8c-2.9,0.4-5.5-1.7-5.8-4.6c-0.4-2.9,1.7-5.5,4.6-5.8
		C139.5,195.4,142.1,197.5,142.4,200.3"/>
	<polygon class="st34" points="239.2,123.6 248.6,117.9 249.7,119.1 241.1,124.6 	"/>
	<polygon class="st25" points="239.2,123.6 248.6,117.9 249.7,119.1 241.1,124.6 	"/>
	<polygon class="st35" points="241.1,124.6 249.5,119.1 249.4,120.8 241,125.7 	"/>
	<polygon class="st25" points="241.1,124.6 249.5,119.1 249.4,120.8 241,125.7 	"/>
	<polygon class="st34" points="240.6,125.9 250,120.2 251.1,121.4 242.5,126.9 	"/>
	<polygon class="st25" points="240.6,125.9 250,120.2 251.1,121.4 242.5,126.9 	"/>
	<polygon class="st35" points="242.5,126.9 250.9,121.3 250.8,123.1 242.5,128 	"/>
	<polygon class="st25" points="242.5,126.9 250.9,121.3 250.8,123.1 242.5,128 	"/>
	<polygon class="st34" points="241.9,128.5 251.3,122.8 252.4,124 243.8,129.5 	"/>
	<polygon class="st25" points="241.9,128.5 251.3,122.8 252.4,124 243.8,129.5 	"/>
	<polygon class="st35" points="243.8,129.5 252.3,124 252.1,125.7 243.8,130.6 	"/>
	<polygon class="st25" points="243.8,129.5 252.3,124 252.1,125.7 243.8,130.6 	"/>
	<polygon class="st34" points="243.2,131.1 252.5,125.4 253.7,126.6 245.1,132 	"/>
	<polygon class="st25" points="243.2,131.1 252.5,125.4 253.7,126.6 245.1,132 	"/>
	<polygon class="st35" points="245.1,132 253.5,126.5 253.4,128.3 245,133.2 	"/>
	<polygon class="st25" points="245.1,132 253.5,126.5 253.4,128.3 245,133.2 	"/>
	<polygon class="st34" points="244.8,133.6 254.1,127.8 255.3,129 246.7,134.5 	"/>
	<polygon class="st25" points="244.8,133.6 254.1,127.8 255.3,129 246.7,134.5 	"/>
	<polygon class="st35" points="246.7,134.5 255.1,129 255,130.8 246.6,135.7 	"/>
	<polygon class="st25" points="246.7,134.5 255.1,129 255,130.8 246.6,135.7 	"/>
	<polygon class="st34" points="245.9,136.2 255.3,130.5 256.4,131.7 247.8,137.2 	"/>
	<polygon class="st25" points="245.9,136.2 255.3,130.5 256.4,131.7 247.8,137.2 	"/>
	<polygon class="st34" points="106.6,141.3 116,135.6 117.1,136.8 108.5,142.3 	"/>
	<polygon class="st25" points="106.6,141.3 116,135.6 117.1,136.8 108.5,142.3 	"/>
	<polygon class="st35" points="247.8,137.2 256.2,131.7 256.1,133.4 247.7,138.3 	"/>
	<polygon class="st25" points="247.8,137.2 256.2,131.7 256.1,133.4 247.7,138.3 	"/>
	<polygon class="st34" points="247.2,138.8 256.6,133.1 257.7,134.3 249.1,139.8 	"/>
	<polygon class="st25" points="247.2,138.8 256.6,133.1 257.7,134.3 249.1,139.8 	"/>
	<polygon class="st35" points="249.1,139.8 257.5,134.2 257.4,136 249.1,140.9 	"/>
	<polygon class="st25" points="249.1,139.8 257.5,134.2 257.4,136 249.1,140.9 	"/>
	<polygon class="st34" points="248.5,141.4 257.8,135.7 259,136.9 250.4,142.4 	"/>
	<polygon class="st25" points="248.5,141.4 257.8,135.7 259,136.9 250.4,142.4 	"/>
	<polygon class="st35" points="250.4,142.4 258.8,136.9 258.7,138.7 250.3,143.5 	"/>
	<polygon class="st25" points="250.4,142.4 258.8,136.9 258.7,138.7 250.3,143.5 	"/>
	<polygon class="st34" points="249.6,144.1 258.9,138.4 260.1,139.6 251.5,145.1 	"/>
	<polygon class="st25" points="249.6,144.1 258.9,138.4 260.1,139.6 251.5,145.1 	"/>
	<polygon class="st35" points="251.5,145.1 259.9,139.6 259.8,141.4 251.4,146.2 	"/>
	<polygon class="st25" points="251.5,145.1 259.9,139.6 259.8,141.4 251.4,146.2 	"/>
	<polygon class="st34" points="99.6,129.1 109,123.4 110.1,124.6 101.5,130.1 	"/>
	<polygon class="st25" points="99.6,129.1 109,123.4 110.1,124.6 101.5,130.1 	"/>
	<polygon class="st35" points="101.5,130.1 110,124.6 109.8,126.3 101.5,131.2 	"/>
	<polygon class="st25" points="101.5,130.1 110,124.6 109.8,126.3 101.5,131.2 	"/>
	<polygon class="st34" points="101.1,131.4 110.4,125.7 111.6,126.9 103,132.4 	"/>
	<polygon class="st25" points="101.1,131.4 110.4,125.7 111.6,126.9 103,132.4 	"/>
	<polygon class="st35" points="103,132.4 111.4,126.8 111.3,128.6 102.9,133.5 	"/>
	<polygon class="st25" points="103,132.4 111.4,126.8 111.3,128.6 102.9,133.5 	"/>
	<polygon class="st34" points="102.4,134 111.7,128.3 112.9,129.5 104.3,135 	"/>
	<polygon class="st25" points="102.4,134 111.7,128.3 112.9,129.5 104.3,135 	"/>
	<polygon class="st35" points="104.3,135 112.7,129.5 112.6,131.3 104.2,136.1 	"/>
	<polygon class="st25" points="104.3,135 112.7,129.5 112.6,131.3 104.2,136.1 	"/>
	<polygon class="st34" points="103.6,136.6 113,130.9 114.1,132.1 105.5,137.6 	"/>
	<polygon class="st25" points="103.6,136.6 113,130.9 114.1,132.1 105.5,137.6 	"/>
	<polygon class="st35" points="105.5,137.6 113.9,132 113.8,133.8 105.4,138.7 	"/>
	<polygon class="st25" points="105.5,137.6 113.9,132 113.8,133.8 105.4,138.7 	"/>
	<polygon class="st34" points="105.2,139.1 114.6,133.4 115.7,134.6 107.1,140 	"/>
	<polygon class="st25" points="105.2,139.1 114.6,133.4 115.7,134.6 107.1,140 	"/>
	<polygon class="st35" points="107.1,140 115.5,134.5 115.4,136.3 107,141.2 	"/>
	<polygon class="st25" points="107.1,140 115.5,134.5 115.4,136.3 107,141.2 	"/>
	<polygon class="st35" points="108.3,142.7 116.7,137.2 116.5,138.9 108.2,143.8 	"/>
	<polygon class="st25" points="108.3,142.7 116.7,137.2 116.5,138.9 108.2,143.8 	"/>
	<polygon class="st34" points="107.7,144.3 117,138.6 118.2,139.8 109.6,145.3 	"/>
	<polygon class="st25" points="107.7,144.3 117,138.6 118.2,139.8 109.6,145.3 	"/>
	<polygon class="st35" points="109.6,145.3 118,139.8 117.9,141.5 109.5,146.4 	"/>
	<polygon class="st25" points="109.6,145.3 118,139.8 117.9,141.5 109.5,146.4 	"/>
	<polygon class="st34" points="108.9,146.9 118.3,141.2 119.4,142.4 110.8,147.9 	"/>
	<polygon class="st25" points="108.9,146.9 118.3,141.2 119.4,142.4 110.8,147.9 	"/>
	<polygon class="st35" points="110.8,147.9 119.2,142.4 119.1,144.2 110.7,149 	"/>
	<polygon class="st25" points="110.8,147.9 119.2,142.4 119.1,144.2 110.7,149 	"/>
	<polygon class="st34" points="110,149.6 119.4,143.9 120.5,145.1 111.9,150.6 	"/>
	<polygon class="st25" points="110,149.6 119.4,143.9 120.5,145.1 111.9,150.6 	"/>
	<polygon class="st35" points="111.9,150.6 120.3,145.1 120.2,146.9 111.8,151.7 	"/>
	<polygon class="st25" points="111.9,150.6 120.3,145.1 120.2,146.9 111.8,151.7 	"/>
	<polygon class="st34" points="250.7,146.8 260.1,141 261.2,142.2 252.6,147.7 	"/>
	<polygon class="st25" points="250.7,146.8 260.1,141 261.2,142.2 252.6,147.7 	"/>
	<polygon class="st35" points="252.6,147.7 261,142.2 260.9,144 252.5,148.9 	"/>
	<polygon class="st25" points="252.6,147.7 261,142.2 260.9,144 252.5,148.9 	"/>
	<polygon class="st34" points="263,110 272.4,104.2 273.5,105.4 264.9,110.9 	"/>
	<polygon class="st25" points="263,110 272.4,104.2 273.5,105.4 264.9,110.9 	"/>
	<polygon class="st35" points="265,111.1 273.5,105.6 273.3,107.4 265,112.2 	"/>
	<polygon class="st25" points="265,111.1 273.5,105.6 273.3,107.4 265,112.2 	"/>
	<polygon class="st34" points="264.6,112.4 273.9,106.7 275.1,107.9 266.5,113.4 	"/>
	<polygon class="st25" points="264.6,112.4 273.9,106.7 275.1,107.9 266.5,113.4 	"/>
	<polygon class="st35" points="266.4,113.2 274.8,107.7 274.7,109.5 266.3,114.3 	"/>
	<polygon class="st25" points="266.4,113.2 274.8,107.7 274.7,109.5 266.3,114.3 	"/>
	<polygon class="st34" points="265.8,114.9 275.1,109.1 276.3,110.3 267.7,115.8 	"/>
	<polygon class="st25" points="265.8,114.9 275.1,109.1 276.3,110.3 267.7,115.8 	"/>
	<polygon class="st35" points="267.7,115.8 276.1,110.3 276,112.1 267.6,117 	"/>
	<polygon class="st25" points="267.7,115.8 276.1,110.3 276,112.1 267.6,117 	"/>
	<polygon class="st34" points="267,117.4 276.4,111.7 277.5,112.9 268.9,118.4 	"/>
	<polygon class="st25" points="267,117.4 276.4,111.7 277.5,112.9 268.9,118.4 	"/>
	<polygon class="st35" points="268.9,118.4 277.3,112.9 277.2,114.7 268.8,119.5 	"/>
	<polygon class="st25" points="268.9,118.4 277.3,112.9 277.2,114.7 268.8,119.5 	"/>
	<polygon class="st34" points="268.6,119.9 278,114.2 279.1,115.4 270.5,120.9 	"/>
	<polygon class="st25" points="268.6,119.9 278,114.2 279.1,115.4 270.5,120.9 	"/>
	<polygon class="st35" points="270.5,120.9 278.9,115.4 278.8,117.2 270.4,122 	"/>
	<polygon class="st25" points="270.5,120.9 278.9,115.4 278.8,117.2 270.4,122 	"/>
	<polygon class="st34" points="269.8,122.6 279.1,116.8 280.2,118 271.7,123.5 	"/>
	<polygon class="st25" points="269.8,122.6 279.1,116.8 280.2,118 271.7,123.5 	"/>
	<polygon class="st35" points="271.7,123.5 280.1,118 279.9,119.8 271.6,124.7 	"/>
	<polygon class="st25" points="271.7,123.5 280.1,118 279.9,119.8 271.6,124.7 	"/>
	<polygon class="st34" points="271.1,125.1 280.4,119.4 281.6,120.6 273,126.1 	"/>
	<polygon class="st25" points="271.1,125.1 280.4,119.4 281.6,120.6 273,126.1 	"/>
	<polygon class="st35" points="273,126.1 281.4,120.6 281.3,122.4 272.9,127.2 	"/>
	<polygon class="st25" points="273,126.1 281.4,120.6 281.3,122.4 272.9,127.2 	"/>
	<polygon class="st34" points="272.3,127.8 281.7,122.1 282.8,123.3 274.2,128.8 	"/>
	<polygon class="st25" points="272.3,127.8 281.7,122.1 282.8,123.3 274.2,128.8 	"/>
	<polygon class="st35" points="274.2,128.8 282.6,123.2 282.5,125 274.1,129.9 	"/>
	<polygon class="st25" points="274.2,128.8 282.6,123.2 282.5,125 274.1,129.9 	"/>
	<polygon class="st34" points="273.4,130.5 282.8,124.8 283.9,126 275.3,131.5 	"/>
	<polygon class="st25" points="273.4,130.5 282.8,124.8 283.9,126 275.3,131.5 	"/>
	<polygon class="st35" points="275.2,131.8 283.6,126.3 283.5,128.1 275.1,132.9 	"/>
	<polygon class="st25" points="275.2,131.8 283.6,126.3 283.5,128.1 275.1,132.9 	"/>
	<polygon class="st34" points="274.6,133.2 283.9,127.4 285.1,128.6 276.5,134.1 	"/>
	<polygon class="st25" points="274.6,133.2 283.9,127.4 285.1,128.6 276.5,134.1 	"/>
	<polygon class="st35" points="276.5,134.1 284.9,128.6 284.8,130.4 276.4,135.3 	"/>
	<polygon class="st25" points="276.5,134.1 284.9,128.6 284.8,130.4 276.4,135.3 	"/>
	<polygon class="st36" points="365.9,73.3 401.3,76.4 265.6,178.7 188.4,186.6 	"/>
	<polyline class="st19" points="365.9,73.3 401.3,76.4 265.6,178.7 188.4,186.6 365.9,73.3 	"/>
	<polygon class="st36" points="188.4,186.6 194.7,251.9 274.2,248.9 265.6,178.7 	"/>
	<polyline class="st19" points="188.4,186.6 194.7,251.9 274.2,248.9 265.6,178.7 188.4,186.6 	"/>
	<polygon class="st37" points="401.3,76.4 411.3,147.7 274.2,248.9 265.6,178.7 	"/>
	<polyline class="st19" points="401.3,76.4 411.3,147.7 274.2,248.9 265.6,178.7 401.3,76.4 	"/>
	<polygon class="st38" points="295.8,179.4 287.8,185.2 285.2,171.4 293.1,165.6 	"/>
	<polygon class="st25" points="295.8,179.4 287.8,185.2 285.2,171.4 293.1,165.6 	"/>
	<polygon class="st38" points="283.7,188.1 275.6,193.9 273.1,180.1 281,174.3 	"/>
	<polygon class="st25" points="283.7,188.1 275.6,193.9 273.1,180.1 281,174.3 	"/>
	<polygon class="st38" points="298.6,201.1 290.6,206.9 288,193.1 296,187.3 	"/>
	<polygon class="st25" points="298.6,201.1 290.6,206.9 288,193.1 296,187.3 	"/>
	<polygon class="st38" points="310,189.4 302,195.2 299.4,181.4 307.3,175.6 	"/>
	<polygon class="st25" points="310,189.4 302,195.2 299.4,181.4 307.3,175.6 	"/>
	<polygon class="st38" points="321.3,181.9 313.2,187.6 310.7,173.9 318.6,168 	"/>
	<polygon class="st25" points="321.3,181.9 313.2,187.6 310.7,173.9 318.6,168 	"/>
	<polygon class="st38" points="307,170.4 299,176.1 296.4,162.4 304.4,156.5 	"/>
	<polygon class="st25" points="307,170.4 299,176.1 296.4,162.4 304.4,156.5 	"/>
	<polygon class="st38" points="318,162.4 309.9,168.1 307.4,154.4 315.3,148.6 	"/>
	<polygon class="st25" points="318,162.4 309.9,168.1 307.4,154.4 315.3,148.6 	"/>
	<polygon class="st38" points="344.1,143.3 336,149.1 333.5,135.3 341.4,129.5 	"/>
	<polygon class="st25" points="344.1,143.3 336,149.1 333.5,135.3 341.4,129.5 	"/>
	<polygon class="st38" points="360.5,130.4 352.5,136.1 349.9,122.3 357.9,116.5 	"/>
	<polygon class="st25" points="360.5,130.4 352.5,136.1 349.9,122.3 357.9,116.5 	"/>
	<polygon class="st38" points="373.9,120.3 365.8,126.1 363.3,112.3 371.2,106.5 	"/>
	<polygon class="st25" points="373.9,120.3 365.8,126.1 363.3,112.3 371.2,106.5 	"/>
	<polygon class="st38" points="387,109.9 379,115.6 376.4,101.9 384.4,96 	"/>
	<polygon class="st25" points="387,109.9 379,115.6 376.4,101.9 384.4,96 	"/>
	<polygon class="st38" points="400.2,99.9 392.1,105.6 389.6,91.9 397.5,86 	"/>
	<polygon class="st25" points="400.2,99.9 392.1,105.6 389.6,91.9 397.5,86 	"/>
	<polygon class="st39" points="278.2,135.5 320.9,107.4 353,106.7 310.8,138.7 	"/>
	<polygon class="st21" points="278.2,135.5 320.9,107.4 353,106.7 310.8,138.7 	"/>
	<polygon class="st40" points="278.2,135.5 320.9,107.4 353,106.7 349.4,109.5 321.8,110.2 284.4,136.2 	"/>
	<polygon class="st24" points="278.2,135.5 320.9,107.4 353,106.7 349.4,109.5 321.8,110.2 284.4,136.2 	"/>
	<polygon class="st41" points="300.2,125.3 315.9,126.9 316.6,130.9 300.6,130 	"/>
	<polygon class="st25" points="300.2,125.3 315.9,126.9 316.6,130.9 300.6,130 	"/>
	<polygon class="st42" points="300,125.3 307.5,117.5 314.7,112.7 321.6,112.5 331,116.2 315.8,126.9 	"/>
	<polyline class="st25" points="300,125.3 307.5,117.5 314.7,112.7 321.6,112.5 331,116.2 315.8,126.9 300,125.3 	"/>
	<polygon class="st41" points="331.2,116.2 331.7,120.2 316.6,130.9 315.9,126.9 	"/>
	<polygon class="st25" points="331.2,116.2 331.7,120.2 316.6,130.9 315.9,126.9 	"/>
	<polygon class="st41" points="307.6,117.5 313.7,118 321.7,112.5 314.9,112.7 	"/>
	<polygon class="st25" points="307.6,117.5 313.7,118 321.7,112.5 314.9,112.7 	"/>
	<line class="st42" x1="309.3" y1="119.1" x2="306.5" y2="123.4"/>
	<line class="st25" x1="309.3" y1="119.1" x2="306.5" y2="123.4"/>
	<line class="st42" x1="313.7" y1="118" x2="315.3" y2="124.1"/>
	<line class="st25" x1="313.7" y1="118" x2="315.3" y2="124.1"/>
	<line class="st42" x1="317.6" y1="117.9" x2="319.5" y2="122"/>
	<line class="st25" x1="317.6" y1="117.9" x2="319.5" y2="122"/>
	<line class="st42" x1="321.8" y1="115.5" x2="325.9" y2="119.2"/>
	<line class="st25" x1="321.8" y1="115.5" x2="325.9" y2="119.2"/>
	<path class="st25" d="M296.5,131.1"/>
	<line class="st43" x1="322" y1="147.8" x2="327" y2="150.9"/>
	<polygon class="st34" points="328.1,128.4 337.7,121.3 339,122.5 330.3,129.2 	"/>
	<polygon class="st25" points="328.1,128.4 337.7,121.3 339,122.5 330.3,129.2 	"/>
	<polygon class="st35" points="330.3,129.2 338.8,122.5 338.9,124.4 330.3,130.4 	"/>
	<polygon class="st25" points="330.3,129.2 338.8,122.5 338.9,124.4 330.3,130.4 	"/>
	<polygon class="st34" points="329.9,130.7 339.5,123.6 340.8,124.8 332,131.6 	"/>
	<polygon class="st25" points="329.9,130.7 339.5,123.6 340.8,124.8 332,131.6 	"/>
	<polygon class="st35" points="332,131.6 340.6,124.8 340.6,126.7 332,132.8 	"/>
	<polygon class="st25" points="332,131.6 340.6,124.8 340.6,126.7 332,132.8 	"/>
	<polygon class="st34" points="331.5,133.4 341.1,126.3 342.5,127.5 333.7,134.3 	"/>
	<polygon class="st25" points="331.5,133.4 341.1,126.3 342.5,127.5 333.7,134.3 	"/>
	<polygon class="st35" points="333.7,134.3 342.3,127.5 342.3,129.4 333.7,135.5 	"/>
	<polygon class="st25" points="333.7,134.3 342.3,127.5 342.3,129.4 333.7,135.5 	"/>
	<polygon class="st34" points="333.1,136.1 342.7,129 344,130.2 335.3,136.9 	"/>
	<polygon class="st25" points="333.1,136.1 342.7,129 344,130.2 335.3,136.9 	"/>
	<polygon class="st35" points="335.3,136.9 343.8,130.2 343.9,132.1 335.3,138.1 	"/>
	<polygon class="st25" points="335.3,136.9 343.8,130.2 343.9,132.1 335.3,138.1 	"/>
	<polygon class="st34" points="335.1,138.6 344.7,131.5 346,132.7 337.2,139.5 	"/>
	<polygon class="st25" points="335.1,138.6 344.7,131.5 346,132.7 337.2,139.5 	"/>
	<polygon class="st35" points="337.2,139.5 345.8,132.7 345.8,134.6 337.2,140.7 	"/>
	<polygon class="st25" points="337.2,139.5 345.8,132.7 345.8,134.6 337.2,140.7 	"/>
	<polygon class="st34" points="336.6,141.4 346.2,134.3 347.5,135.5 338.7,142.2 	"/>
	<polygon class="st25" points="336.6,141.4 346.2,134.3 347.5,135.5 338.7,142.2 	"/>
	<polygon class="st35" points="338.7,142.2 347.3,135.5 347.3,137.4 338.7,143.4 	"/>
	<polygon class="st25" points="338.7,142.2 347.3,135.5 347.3,137.4 338.7,143.4 	"/>
	<polygon class="st34" points="338.2,144 347.8,136.9 349.2,138.1 340.4,144.9 	"/>
	<polygon class="st25" points="338.2,144 347.8,136.9 349.2,138.1 340.4,144.9 	"/>
	<polygon class="st35" points="340.4,144.9 349,138.1 349,140.1 340.4,146.1 	"/>
	<polygon class="st25" points="340.4,144.9 349,138.1 349,140.1 340.4,146.1 	"/>
	<polygon class="st34" points="339.8,146.8 349.4,139.7 350.7,140.9 342,147.6 	"/>
	<polygon class="st25" points="339.8,146.8 349.4,139.7 350.7,140.9 342,147.6 	"/>
	<polygon class="st35" points="342,147.6 350.5,140.9 350.6,142.8 342,148.8 	"/>
	<polygon class="st25" points="342,147.6 350.5,140.9 350.6,142.8 342,148.8 	"/>
	<polygon class="st34" points="341.3,149.6 350.9,142.5 352.2,143.7 343.4,150.4 	"/>
	<polygon class="st25" points="341.3,149.6 350.9,142.5 352.2,143.7 343.4,150.4 	"/>
	<polygon class="st35" points="343.4,150.4 352,143.7 352.1,145.6 343.5,151.7 	"/>
	<polygon class="st25" points="343.4,150.4 352,143.7 352.1,145.6 343.5,151.7 	"/>
	<polygon class="st34" points="342.8,152.3 352.4,145.2 353.7,146.4 344.9,153.2 	"/>
	<polygon class="st25" points="342.8,152.3 352.4,145.2 353.7,146.4 344.9,153.2 	"/>
	<polygon class="st35" points="344.9,153.2 353.5,146.4 353.5,148.4 344.9,154.4 	"/>
	<polygon class="st25" points="344.9,153.2 353.5,146.4 353.5,148.4 344.9,154.4 	"/>
	<polygon class="st34" points="359.3,105.6 368.8,98.5 370.2,99.7 361.4,106.4 	"/>
	<polygon class="st25" points="359.3,105.6 368.8,98.5 370.2,99.7 361.4,106.4 	"/>
	<polygon class="st35" points="361.4,106.4 370,99.7 370,101.6 361.4,107.6 	"/>
	<polygon class="st25" points="361.4,106.4 370,99.7 370,101.6 361.4,107.6 	"/>
	<polygon class="st34" points="361,107.9 370.6,100.8 371.9,102 363.2,108.7 	"/>
	<polygon class="st25" points="361,107.9 370.6,100.8 371.9,102 363.2,108.7 	"/>
	<polygon class="st35" points="363.2,108.7 371.7,102 371.8,103.9 363.2,110 	"/>
	<polygon class="st25" points="363.2,108.7 371.7,102 371.8,103.9 363.2,110 	"/>
	<polygon class="st34" points="362.7,110.6 372.3,103.5 373.6,104.7 364.8,111.5 	"/>
	<polygon class="st25" points="362.7,110.6 372.3,103.5 373.6,104.7 364.8,111.5 	"/>
	<polygon class="st35" points="364.8,111.5 373.4,104.7 373.5,106.6 364.9,112.7 	"/>
	<polygon class="st25" points="364.8,111.5 373.4,104.7 373.5,106.6 364.9,112.7 	"/>
	<polygon class="st34" points="364.3,113.2 373.8,106.2 375.2,107.4 366.4,114.1 	"/>
	<polygon class="st25" points="364.3,113.2 373.8,106.2 375.2,107.4 366.4,114.1 	"/>
	<polygon class="st35" points="366.4,114.1 375,107.4 375,109.3 366.4,115.3 	"/>
	<polygon class="st25" points="366.4,114.1 375,107.4 375,109.3 366.4,115.3 	"/>
	<polygon class="st34" points="366.2,115.8 375.8,108.7 377.1,109.9 368.4,116.7 	"/>
	<polygon class="st25" points="366.2,115.8 375.8,108.7 377.1,109.9 368.4,116.7 	"/>
	<polygon class="st35" points="368.4,116.7 376.9,109.9 377,111.8 368.4,117.9 	"/>
	<polygon class="st25" points="368.4,116.7 376.9,109.9 377,111.8 368.4,117.9 	"/>
	<polygon class="st34" points="367.7,118.5 377.3,111.5 378.6,112.6 369.9,119.4 	"/>
	<polygon class="st25" points="367.7,118.5 377.3,111.5 378.6,112.6 369.9,119.4 	"/>
	<polygon class="st35" points="369.9,119.4 378.4,112.6 378.5,114.6 369.9,120.6 	"/>
	<polygon class="st25" points="369.9,119.4 378.4,112.6 378.5,114.6 369.9,120.6 	"/>
	<polygon class="st34" points="369.4,121.2 379,114.1 380.3,115.3 371.5,122.1 	"/>
	<polygon class="st25" points="369.4,121.2 379,114.1 380.3,115.3 371.5,122.1 	"/>
	<polygon class="st35" points="371.5,122.1 380.1,115.3 380.1,117.2 371.6,123.3 	"/>
	<polygon class="st25" points="371.5,122.1 380.1,115.3 380.1,117.2 371.6,123.3 	"/>
	<polygon class="st34" points="371,123.9 380.5,116.9 381.9,118 373.1,124.8 	"/>
	<polygon class="st25" points="371,123.9 380.5,116.9 381.9,118 373.1,124.8 	"/>
	<polygon class="st35" points="373.1,124.8 381.7,118.1 381.7,120 373.1,126 	"/>
	<polygon class="st25" points="373.1,124.8 381.7,118.1 381.7,120 373.1,126 	"/>
	<polygon class="st34" points="372.4,126.8 382,119.7 383.4,120.9 374.6,127.6 	"/>
	<polygon class="st25" points="372.4,126.8 382,119.7 383.4,120.9 374.6,127.6 	"/>
	<polygon class="st35" points="374.6,127.6 383.2,120.9 383.2,122.8 374.6,128.8 	"/>
	<polygon class="st25" points="374.6,127.6 383.2,120.9 383.2,122.8 374.6,128.8 	"/>
	<polygon class="st34" points="373.9,129.5 383.5,122.4 384.8,123.6 376.1,130.4 	"/>
	<polygon class="st25" points="373.9,129.5 383.5,122.4 384.8,123.6 376.1,130.4 	"/>
	<polygon class="st35" points="376.1,130.4 384.6,123.6 384.7,125.5 376.1,131.6 	"/>
	<polygon class="st25" points="376.1,130.4 384.6,123.6 384.7,125.5 376.1,131.6 	"/>
	<g>
		<defs>
			<path id="SVGID_9_" d="M279.7,153.2l-0.3-2L279.7,153.2z"/>
		</defs>
		<clipPath id="SVGID_10_">
			<use xlink:href="#SVGID_9_"  style="overflow:visible;"/>
		</clipPath>
		
			<linearGradient id="SVGID_11_" gradientUnits="userSpaceOnUse" x1="-1461.8274" y1="123.9533" x2="-1461.0032" y2="123.9533" gradientTransform="matrix(0.316 -6.390400e-03 -6.390400e-03 -0.316 742.1729 182.0923)">
			<stop  offset="0" style="stop-color:#02603F"/>
			<stop  offset="1" style="stop-color:#569125"/>
		</linearGradient>
		<polygon class="st44" points="279.4,151.3 279.7,151.3 279.8,153.2 279.4,153.3 		"/>
	</g>
	<g>
		<defs>
			<path id="SVGID_12_" d="M266.1,155l-0.4-1.4L266.1,155z"/>
		</defs>
		<clipPath id="SVGID_13_">
			<use xlink:href="#SVGID_12_"  style="overflow:visible;"/>
		</clipPath>
		
			<linearGradient id="SVGID_14_" gradientUnits="userSpaceOnUse" x1="-1173.2578" y1="222.3441" x2="-1172.4336" y2="222.3441" gradientTransform="matrix(0.4199 -8.492200e-03 -8.492200e-03 -0.4199 760.3286 237.651)">
			<stop  offset="0" style="stop-color:#02603F"/>
			<stop  offset="1" style="stop-color:#569125"/>
		</linearGradient>
		<polygon class="st45" points="265.7,153.5 266.1,153.5 266.2,155 265.8,155 		"/>
	</g>
	<g>
		<defs>
			<path id="SVGID_15_" d="M357.1,98.9l-0.7-4.4L357.1,98.9z"/>
		</defs>
		<clipPath id="SVGID_16_">
			<use xlink:href="#SVGID_15_"  style="overflow:visible;"/>
		</clipPath>
		
			<linearGradient id="SVGID_17_" gradientUnits="userSpaceOnUse" x1="-851.9567" y1="327.0911" x2="-851.1326" y2="327.0911" gradientTransform="matrix(0.7126 -1.441070e-02 -1.441070e-02 -0.7126 968.2663 317.4748)">
			<stop  offset="0" style="stop-color:#02603F"/>
			<stop  offset="1" style="stop-color:#569125"/>
		</linearGradient>
		<polygon class="st46" points="356.3,94.5 357.1,94.4 357.2,98.9 356.4,98.9 		"/>
	</g>
	<g>
		<defs>
			<path id="SVGID_18_" d="M374.6,85.7l-0.2-1.6L374.6,85.7z"/>
		</defs>
		<clipPath id="SVGID_19_">
			<use xlink:href="#SVGID_18_"  style="overflow:visible;"/>
		</clipPath>
		
			<linearGradient id="SVGID_20_" gradientUnits="userSpaceOnUse" x1="-1777.5979" y1="-11.6165" x2="-1776.7737" y2="-11.6165" gradientTransform="matrix(0.2615 -5.287700e-03 -5.287700e-03 -0.2615 839.0333 72.4437)">
			<stop  offset="0" style="stop-color:#02603F"/>
			<stop  offset="1" style="stop-color:#569125"/>
		</linearGradient>
		<polygon class="st47" points="374.3,84.1 374.6,84.1 374.6,85.7 374.3,85.7 		"/>
	</g>
	<g>
		<defs>
			<path id="SVGID_21_" d="M363.3,87.1l-0.3-1.2L363.3,87.1z"/>
		</defs>
		<clipPath id="SVGID_22_">
			<use xlink:href="#SVGID_21_"  style="overflow:visible;"/>
		</clipPath>
		
			<linearGradient id="SVGID_23_" gradientUnits="userSpaceOnUse" x1="-1410.8784" y1="120.3256" x2="-1410.0542" y2="120.3256" gradientTransform="matrix(0.3474 -7.026700e-03 -7.026700e-03 -0.3474 854.056 118.4152)">
			<stop  offset="0" style="stop-color:#02603F"/>
			<stop  offset="1" style="stop-color:#569125"/>
		</linearGradient>
		<polygon class="st48" points="363,85.9 363.3,85.9 363.3,87.1 363,87.1 		"/>
	</g>
	<polygon class="st36" points="301.9,191 424.7,93 471.5,93.4 432.3,131 385.3,130.9 351.4,158.5 395.6,163.5 380.1,178.1 	"/>
	<polygon class="st24" points="301.9,191 424.7,93 471.5,93.4 432.3,131 385.3,130.9 351.4,158.5 395.6,163.5 380.1,178.1 	"/>
	<polygon class="st49" points="369.2,160.5 387.3,145.1 433.8,145.3 398.2,178.3 395.9,163.5 	"/>
	<polygon class="st24" points="369.2,160.5 387.3,145.1 433.8,145.3 398.2,178.3 395.9,163.5 	"/>
	<polygon class="st36" points="380.1,178.1 385.3,208.6 301.7,216 301.9,191 	"/>
	<polyline class="st19" points="380.1,178.1 385.3,208.6 301.7,216 301.9,191 380.1,178.1 	"/>
	<polygon class="st50" points="396,163.5 398.2,178.3 433.8,145.3 432.3,131 471.8,93.4 479.8,169.6 389.7,235.1 380.4,178.1 	"/>
	<polyline class="st24" points="396,163.5 398.2,178.3 433.8,145.3 432.3,131 471.8,93.4 479.8,169.6 389.7,235.1 380.4,178.1 
		396,163.5 	"/>
	<polygon class="st51" points="471.5,177.1 467.4,123.5 409.8,180.2 414.2,217.1 	"/>
	<polygon class="st52" points="448.6,193.4 440.1,150.4 403.2,182.7 411.2,219.9 	"/>
	<polygon class="st53" points="433.8,145.3 432.3,131 385.3,130.9 351.4,158.5 369.2,160.5 387.3,145.1 	"/>
	<polygon class="st54" points="372.3,156.9 368.5,159.8 367.1,150.9 371.1,148 	"/>
	<polygon class="st54" points="378.7,151.6 374.9,154.5 373.5,145.7 377.5,142.7 	"/>
	<polygon class="st54" points="384.7,146.6 380.9,149.5 379.5,140.7 383.5,137.7 	"/>
	<polygon class="st43" points="370.3,153.2 369.4,153.9 369.1,151.7 370,151 	"/>
	<polygon class="st43" points="376.8,148.1 375.8,148.8 375.5,146.6 376.5,145.9 	"/>
	<polygon class="st43" points="383,143.8 382.1,144.5 381.7,142.3 382.7,141.6 	"/>
	<g class="st55">
		<g>
			<defs>
				<rect id="SVGID_24_" x="393" y="131.3" width="7.9" height="14"/>
			</defs>
			<clipPath id="SVGID_25_">
				<use xlink:href="#SVGID_24_"  style="overflow:visible;"/>
			</clipPath>
			<polygon class="st56" points="394.1,131.4 395.1,131.4 395.1,133.1 399.1,133.1 399.1,131.6 400.3,131.7 400.3,132.9 
				400.8,132.9 400.8,133.9 400.2,133.9 399.6,142.3 400.2,142.3 400.2,143.2 399.6,143.2 399.6,145.2 398.5,145.2 398.5,143.7 
				394.5,143.5 394.3,145 393.1,145 			"/>
			<polygon class="st57" points="394.1,131.4 395.1,131.4 395.1,133.1 399.1,133.1 399.1,131.6 400.3,131.7 400.3,132.9 
				400.8,132.9 400.8,133.9 400.2,133.9 399.6,142.3 400.2,142.3 400.2,143.2 399.6,143.2 399.6,145.2 398.5,145.2 398.5,143.7 
				394.5,143.5 394.3,145 393.1,145 			"/>
		</g>
	</g>
	<g class="st55">
		<g>
			<defs>
				<rect id="SVGID_26_" x="394.9" y="134.5" width="4.2" height="2"/>
			</defs>
			<clipPath id="SVGID_27_">
				<use xlink:href="#SVGID_26_"  style="overflow:visible;"/>
			</clipPath>
			<polygon class="st58" points="398.9,136.4 395,136.4 395.2,134.6 399.1,134.6 			"/>
			<polygon class="st59" points="398.9,136.4 395,136.4 395.2,134.6 399.1,134.6 			"/>
		</g>
	</g>
	<g class="st55">
		<g>
			<defs>
				<rect id="SVGID_28_" x="394.7" y="137.5" width="4" height="2"/>
			</defs>
			<clipPath id="SVGID_29_">
				<use xlink:href="#SVGID_28_"  style="overflow:visible;"/>
			</clipPath>
			<polygon class="st60" points="398.5,139.4 394.8,139.4 395,137.6 398.6,137.9 			"/>
			<polygon class="st61" points="398.5,139.4 394.8,139.4 395,137.6 398.6,137.9 			"/>
		</g>
	</g>
	<g class="st55">
		<g>
			<defs>
				<rect id="SVGID_30_" x="394.4" y="140.1" width="4.1" height="2.4"/>
			</defs>
			<clipPath id="SVGID_31_">
				<use xlink:href="#SVGID_30_"  style="overflow:visible;"/>
			</clipPath>
			<polygon class="st62" points="398.4,142.3 394.5,142.4 394.8,140.4 398.4,140.2 			"/>
			<polygon class="st63" points="398.4,142.3 394.5,142.4 394.8,140.4 398.4,140.2 			"/>
		</g>
	</g>
	<path class="st64" d="M452.2,119.5c0.4-0.3,14.7-13.7,14.7-13.7l1.8,10.6l-14.6,13.3L452.2,119.5z"/>
	<path class="st65" d="M452.2,119.5c0.4-0.3,14.7-13.7,14.7-13.7l1.8,10.6l-14.6,13.3L452.2,119.5z"/>
	<polygon class="st66" points="457.3,125.2 455.2,127.1 454,120.1 455.9,118.3 	"/>
	<polygon class="st66" points="460.5,122 458.3,124 457.1,116.9 459,115.1 	"/>
	<polygon class="st66" points="463.8,118.9 461.7,120.9 460.5,113.9 462.4,112 	"/>
	<polygon class="st66" points="467.4,115.7 465.3,117.7 464.1,110.6 466,108.8 	"/>
	<polyline class="st67" points="527.7,128.2 451.4,175.8 451.4,217 526.9,175.8 	"/>
	<polyline class="st19" points="527.7,128.2 451.4,175.8 451.4,217 526.9,175.8 	"/>
	<path class="st67" d="M527.7,128.2c2.1,12.9-9.6,23.8-12.8,26.9c-3.3,3.2-7.4,5.8-7.4,5.8c-0.8,0.6-4.3,2.7-9.2,4.8
		c-2.9,1.2-5.4,2-10.2,3.4c-1.5,0.4-3.8,1.1-6.9,2c-5,1.3-9,2-10.6,2.3c-3.4,0.6-6,1-8,1.2c-3,0.4-6.8,0.8-11.1,1.2
		c17.9-24.3,35.8-48.7,53.7-73"/>
	<path class="st67" d="M505.1,102.8c2.6,1.2,6.1,3.2,9.7,6.3c3,2.6,11.4,9.7,12.9,19"/>
	<path class="st24" d="M527.7,128.2c2.1,12.9-9.6,23.8-12.8,26.9c-3.3,3.2-7.4,5.8-7.4,5.8c-0.8,0.6-4.3,2.7-9.2,4.8
		c-2.9,1.2-5.4,2-10.2,3.4c-1.5,0.4-3.8,1.1-6.9,2c-5,1.3-9,2-10.6,2.3c-3.4,0.6-6,1-8,1.2c-3,0.4-6.8,0.8-11.1,1.2
		c17.9-24.3,35.8-48.7,53.7-73c2.6,1.2,6.1,3.2,9.7,6.3C517.8,111.7,526.2,118.8,527.7,128.2"/>
	<path class="st65" d="M420.5,121.9"/>
</g>
</svg>
