<svg xmlns="http://www.w3.org/2000/svg" viewBox="0 0 31.94 62.41"><defs><style>.cls-1{fill:#fff;}.cls-11,.cls-16,.cls-2,.cls-20,.cls-5,.cls-9{fill:none;}.cls-3{fill:#4f4d51;stroke-width:0.26px;}.cls-3,.cls-5{stroke:#fbedd1;}.cls-11,.cls-12,.cls-13,.cls-14,.cls-15,.cls-16,.cls-17,.cls-18,.cls-20,.cls-3,.cls-5,.cls-8,.cls-9{stroke-miterlimit:10;}.cls-4{fill:#5f291a;}.cls-11,.cls-5{stroke-width:0.5px;}.cls-6{fill:#664f15;}.cls-7{fill:#1d6379;}.cls-8{fill:#5e5e62;}.cls-11,.cls-12,.cls-13,.cls-14,.cls-15,.cls-16,.cls-17,.cls-18,.cls-20,.cls-8,.cls-9{stroke:#41434d;}.cls-14,.cls-16,.cls-8{stroke-width:0.25px;}.cls-9{stroke-width:0.51px;}.cls-10{fill:#4f4c51;}.cls-12,.cls-13,.cls-14,.cls-15,.cls-18{fill:#ffb342;}.cls-12{stroke-width:0.25px;}.cls-13{stroke-width:0.24px;}.cls-15{stroke-width:0.26px;}.cls-17{fill:#fdb342;stroke-width:0.1px;}.cls-18{stroke-width:0.25px;}.cls-19{fill:#41434d;}</style></defs><title>红绿灯</title><g id="图层_2" data-name="图层 2"><g id="图层_1-2" data-name="图层 1"><path class="cls-1" d="M11.87,7.69a.29.29,0,1,1-.27-.31.29.29,0,0,1,.27.31"/><circle class="cls-2" cx="11.58" cy="7.67" r="0.29" transform="matrix(0.07, -1, 1, 0.07, 3.14, 18.7)"/><path class="cls-1" d="M11.68,14.62a.29.29,0,1,1-.27-.31.29.29,0,0,1,.27.31"/><circle class="cls-2" cx="11.4" cy="14.6" r="0.29" transform="matrix(0.07, -1, 1, 0.07, -3.95, 24.98)"/><path class="cls-1" d="M11.55,17.77a.29.29,0,1,1-.27-.3.29.29,0,0,1,.27.3"/><circle class="cls-2" cx="11.27" cy="17.75" r="0.29" transform="matrix(0.07, -1, 1, 0.07, -7.21, 27.79)"/><path class="cls-1" d="M11.47,24.64a.29.29,0,1,1-.27-.3.29.29,0,0,1,.27.3"/><circle class="cls-2" cx="11.19" cy="24.62" r="0.29" transform="matrix(0.07, -1, 1, 0.07, -14.14, 34.1)"/><path class="cls-1" d="M11.25,27.88a.29.29,0,1,1-.27-.3.29.29,0,0,1,.27.3"/><circle class="cls-2" cx="10.97" cy="27.86" r="0.29" transform="matrix(0.07, -1, 1, 0.07, -17.58, 36.9)"/><path class="cls-1" d="M11.07,34.8a.29.29,0,1,1-.27-.31.29.29,0,0,1,.27.31"/><circle class="cls-2" cx="10.78" cy="34.78" r="0.29" transform="matrix(0.07, -1, 1, 0.07, -24.65, 43.17)"/><path class="cls-1" d="M20,28.13a.29.29,0,1,1-.27-.31.29.29,0,0,1,.27.31"/><circle class="cls-2" cx="19.73" cy="28.11" r="0.29" transform="matrix(0.07, -1, 1, 0.07, -9.65, 45.88)"/><path class="cls-1" d="M19.84,35a.29.29,0,1,1-.27-.3.29.29,0,0,1,.27.3"/><circle class="cls-2" cx="19.55" cy="34.98" r="0.29" transform="matrix(0.07, -1, 1, 0.07, -16.68, 52.11)"/><path class="cls-1" d="M20.23,24.95a.29.29,0,1,1-.27-.31.29.29,0,0,1,.27.31"/><circle class="cls-2" cx="19.95" cy="24.93" r="0.29" transform="translate(-6.28 43.14) rotate(-86.1)"/><path class="cls-1" d="M20.28,17.95a.29.29,0,1,1-.27-.3.29.29,0,0,1,.27.3"/><circle class="cls-2" cx="20" cy="17.93" r="0.29" transform="translate(0.75 36.66) rotate(-86.1)"/><path class="cls-1" d="M20.35,14.79a.29.29,0,1,1-.27-.3.29.29,0,0,1,.27.3"/><circle class="cls-2" cx="20.07" cy="14.77" r="0.29" transform="matrix(0.07, -1, 1, 0.07, 3.97, 33.79)"/><path class="cls-1" d="M20.59,7.89a.29.29,0,1,1-.27-.3.29.29,0,0,1,.27.3"/><circle class="cls-2" cx="20.3" cy="7.87" r="0.29" transform="matrix(0.07, -1, 1, 0.07, 11.07, 27.59)"/><rect class="cls-3" x="0.36" y="14.98" width="31.15" height="11.5" transform="translate(-5.09 36.29) rotate(-88.95)"/><path class="cls-4" d="M19.37,10.61a3.54,3.54,0,1,1-3.29-3.77,3.54,3.54,0,0,1,3.29,3.77"/><path class="cls-5" d="M19.37,10.61A3.54,3.54,0,1,1,17,7,3.54,3.54,0,0,1,19.37,10.61Z"/><path class="cls-6" d="M19.44,21.09a3.54,3.54,0,1,1-3.29-3.77,3.54,3.54,0,0,1,3.29,3.77"/><circle class="cls-5" cx="15.9" cy="20.85" r="3.54" transform="translate(-5.98 35.3) rotate(-86.1)"/><path class="cls-7" d="M19.29,31.63A3.54,3.54,0,1,1,16,27.85a3.54,3.54,0,0,1,3.29,3.77"/><circle class="cls-5" cx="15.75" cy="31.39" r="3.54" transform="translate(-16.63 44.96) rotate(-86.09)"/><rect class="cls-8" x="2.39" y="48.05" width="26.06" height="2.36" transform="translate(-34.09 63.74) rotate(-88.93)"/><rect class="cls-9" x="0.33" y="15.01" width="31.21" height="11.5" transform="translate(-5.12 36.31) rotate(-88.95)"/><polygon class="cls-10" points="7.38 0.27 8.7 0.36 8.64 1.16 10.01 1.25 9.91 2.79 8.94 2.73 8.86 3.81 7.15 3.69 7.2 2.89 6.01 2.75 6.11 1.33 7.25 1.35 7.38 0.27"/><polygon class="cls-11" points="7.38 0.27 8.7 0.36 8.64 1.16 10.01 1.25 9.91 2.79 8.94 2.73 8.86 3.81 7.15 3.69 7.2 2.89 6.01 2.75 6.11 1.33 7.25 1.35 7.38 0.27"/><polygon class="cls-10" points="15.52 0.42 16.84 0.51 16.78 1.31 18.15 1.4 18.05 2.94 17.08 2.88 17 3.96 15.29 3.85 15.34 3.05 14.15 2.91 14.24 1.48 15.39 1.5 15.52 0.42"/><polygon class="cls-11" points="15.52 0.42 16.84 0.51 16.78 1.31 18.15 1.4 18.05 2.94 17.08 2.88 17 3.96 15.29 3.85 15.34 3.05 14.15 2.91 14.24 1.48 15.39 1.5 15.52 0.42"/><polygon class="cls-10" points="23.66 0.57 24.98 0.66 24.92 1.46 26.29 1.56 26.19 3.1 25.22 3.03 25.14 4.12 23.43 4 23.48 3.2 22.29 3.06 22.39 1.63 23.53 1.65 23.66 0.57"/><polygon class="cls-11" points="23.66 0.57 24.98 0.66 24.92 1.46 26.29 1.56 26.19 3.1 25.22 3.03 25.14 4.12 23.43 4 23.48 3.2 22.29 3.06 22.39 1.63 23.53 1.65 23.66 0.57"/><polygon class="cls-12" points="31.67 14.88 26.61 14.79 26.75 7.54 31.81 7.63 31.67 14.88"/><polygon class="cls-13" points="31.51 23.49 26.45 23.4 26.59 16.3 31.65 16.39 31.51 23.49"/><polygon class="cls-13" points="31.35 32.2 26.29 32.12 26.43 25.13 31.49 25.21 31.35 32.2"/><rect class="cls-14" x="-0.19" y="8.45" width="7.24" height="4.78" transform="translate(-7.53 13.86) rotate(-87.8)"/><polygon class="cls-15" points="5.41 23.11 0.51 22.93 0.78 15.83 5.68 16.01 5.41 23.11"/><path class="cls-16" d="M.7,15.88"/><path class="cls-16" d="M5.31,16"/><polygon class="cls-14" points="26.05 35.94 22.31 35.93 22.9 4.27 26.65 4.28 26.05 35.94"/><polygon class="cls-17" points="22.32 5.8 10.13 5.47 10.15 3.8 22.34 4.13 22.32 5.8"/><polygon class="cls-18" points="9.04 36.06 5.3 36.05 5.9 4.06 9.64 4.07 9.04 36.06"/><rect class="cls-19" x="5.3" y="4.06" width="0.81" height="33.02" transform="translate(0.6 -0.16) rotate(1.66)"/><polygon class="cls-15" points="5.03 31.61 0.13 31.43 0.41 24.33 5.3 24.51 5.03 31.61"/><rect class="cls-19" x="25.64" y="4.18" width="0.81" height="32.81" transform="translate(0.27 -0.34) rotate(0.76)"/><path class="cls-5" d="M15.51,28.14"/><path class="cls-20" d="M5.61,13.78"/></g></g></svg>