<svg xmlns="http://www.w3.org/2000/svg" viewBox="0 0 62.17 151.14"><defs><style>.cls-1,.cls-3{fill:#1d1d1b;}.cls-2{fill:#f56991;}.cls-3{opacity:0.2;}.cls-4,.cls-6{fill:#fff;}.cls-4{opacity:0.5;}.cls-5{fill:#e30613;opacity:0.1;}</style></defs><title>气球</title><g id="图层_2" data-name="图层 2"><g id="图层_1-2" data-name="图层 1"><path class="cls-1" d="M19.36,151l.24.06a3,3,0,0,0,.73.06,7.86,7.86,0,0,0,2.85-.82,24.37,24.37,0,0,0,4.31-2.7c.81-.62,1.66-1.33,2.54-2.15a28,28,0,0,0,2.66-2.83A14.51,14.51,0,0,0,34,140.8a21.13,21.13,0,0,0,1-2.22,13,13,0,0,0,.71-2.5,9.82,9.82,0,0,0,.12-1.31,7.71,7.71,0,0,0-.79-3.55,12.76,12.76,0,0,0-1.14-1.9c-.84-1.19-1.8-2.26-2.69-3.5a16.21,16.21,0,0,1-1.26-2,10.46,10.46,0,0,1-.92-2.53,10.74,10.74,0,0,1-.21-3.09,14.49,14.49,0,0,1,.22-1.62c.05-.27.11-.53.18-.8a7.61,7.61,0,0,1,.23-.8,11.5,11.5,0,0,1,1.42-2.8A15.14,15.14,0,0,1,32.66,110a44.52,44.52,0,0,1,4-3.34c.66-.52,1.33-1,2-1.62a15.84,15.84,0,0,0,1.85-1.9A17,17,0,0,0,42,100.74a14.93,14.93,0,0,0,1.18-2.8A18.52,18.52,0,0,0,44,91.85a28.4,28.4,0,0,0-.77-5.64,52.13,52.13,0,0,0-3.29-9.37c-1.25-2.78-2.55-5.26-3.78-7.52-2.47-4.5-4.64-8.1-6-10.84a19.16,19.16,0,0,1-1.39-3.39A4.91,4.91,0,0,1,28.6,54a1.79,1.79,0,0,1,0-.29v0a1.78,1.78,0,0,0,0,.29,4.6,4.6,0,0,0,.18,1,18.92,18.92,0,0,0,1.43,3.33c1.39,2.69,3.6,6.23,6.1,10.69,1.25,2.23,2.57,4.7,3.84,7.47A51.58,51.58,0,0,1,43.53,86a29,29,0,0,1,.8,5.76,19.08,19.08,0,0,1-.81,6.35A15.82,15.82,0,0,1,42.28,101a17.63,17.63,0,0,1-1.65,2.48,16.5,16.5,0,0,1-1.91,2c-.66.58-1.32,1.12-2,1.64a43.67,43.67,0,0,0-3.92,3.3,14.49,14.49,0,0,0-1.76,2.07,10.8,10.8,0,0,0-1.33,2.61,6.43,6.43,0,0,0-.21.73c-.06.25-.12.51-.17.76a13.9,13.9,0,0,0-.21,1.53,10.23,10.23,0,0,0,.19,2.89,10,10,0,0,0,.87,2.43,15.19,15.19,0,0,0,1.23,2c.88,1.24,1.83,2.32,2.68,3.53a13.62,13.62,0,0,1,1.16,2,8.47,8.47,0,0,1,.73,2.41,8.78,8.78,0,0,1,.08,1.37,11.13,11.13,0,0,1-.14,1.4,13.64,13.64,0,0,1-.76,2.61A20.37,20.37,0,0,1,34.11,141a14.63,14.63,0,0,1-1.3,1.84,27.21,27.21,0,0,1-2.7,2.82c-.89.81-1.75,1.51-2.57,2.12a23.42,23.42,0,0,1-4.34,2.62,7.6,7.6,0,0,1-2.86.75,3,3,0,0,1-.73-.08Z"/><path class="cls-2" d="M.35,15.35C.71,5.77,6.91,1.18,13.76.67c13.3-1,15.9,10.39,17.83,10.32s5.4-12,18-9.15c6.72,1.53,12.91,6,12.55,15.55C61.45,36.3,39,50.45,31.51,52.26a5.66,5.66,0,0,0,.16,1.62,9.37,9.37,0,0,0,.44,3h0a4.12,4.12,0,0,1-1.2,0l0-.05a2.47,2.47,0,0,0-2.48-.35,1.16,1.16,0,0,0-.3.16h-.85a.88.88,0,0,0-.33-.19,2.47,2.47,0,0,1-.42-.17A2.64,2.64,0,0,1,26,56a.91.91,0,0,0-.38-.21.65.65,0,0,1,.16-.27,8.43,8.43,0,0,0,.64-1c.3-.42.72-.71,1-1.16A5.89,5.89,0,0,0,28,52C20.21,49.11-.34,33.83.35,15.35Z"/><path class="cls-3" d="M7.26,35c1.64,1.26,16.22,12.47,22.83,12.5,8.33,0,21.66-9.38,23.28-10.37C46,45.57,36,51.17,31.51,52.26a5.66,5.66,0,0,0,.16,1.62,9.37,9.37,0,0,0,.44,3h0a4.12,4.12,0,0,1-1.2,0l0-.05a2.47,2.47,0,0,0-2.48-.35,1.16,1.16,0,0,0-.3.16h-.85a.88.88,0,0,0-.33-.19,2.47,2.47,0,0,1-.42-.17A2.64,2.64,0,0,1,26,56a.91.91,0,0,0-.38-.21.65.65,0,0,1,.16-.27,8.43,8.43,0,0,0,.64-1c.3-.42.72-.71,1-1.16A5.89,5.89,0,0,0,28,52C23.27,50.23,13.79,43.88,7.26,35Z"/><path class="cls-1" d="M28.37,52l.13,0,.39.12a5.5,5.5,0,0,0,1.59.15A10.38,10.38,0,0,0,33,51.84a21.46,21.46,0,0,0,3.23-1.3,50.91,50.91,0,0,0,7.95-5.06c1.45-1.1,3-2.32,4.48-3.68s3.05-2.87,4.57-4.53c.19-.2.37-.42.56-.63s.38-.42.56-.65c.37-.44.74-.88,1.1-1.34.73-.91,1.42-1.89,2.08-2.9a35.2,35.2,0,0,0,1.84-3.21A30.41,30.41,0,0,0,60.85,25a24.21,24.21,0,0,0,1.3-7.82,21.49,21.49,0,0,0-.38-4.11,17.91,17.91,0,0,0-.52-2,15.36,15.36,0,0,0-.8-2,13.64,13.64,0,0,0-1.1-1.84,12.82,12.82,0,0,0-1.41-1.65,13.37,13.37,0,0,0-1.69-1.38l-.92-.59-.95-.55a19.26,19.26,0,0,0-4.07-1.66c-.18-.06-.36-.1-.54-.14l-.54-.13L48.69,1l-.28,0-.28,0A14.37,14.37,0,0,0,45.91.84a13.63,13.63,0,0,0-8.35,3.06,12,12,0,0,0-1.62,1.61,10.84,10.84,0,0,0-.68.93c-.2.31-.41.61-.62.91-.43.6-.88,1.18-1.36,1.75-.24.28-.48.56-.74.82a5,5,0,0,1-.79.69.82.82,0,0,1-.18.09h-.2a2,2,0,0,1-.22,0l-.1,0-.1,0a1.5,1.5,0,0,1-.67-.63c-.37-.59-.65-1.3-1-2l-.31-.48-.15-.24-.17-.23-.33-.46-.36-.44L27.74,6l-.19-.21-.38-.42-.4-.4-.2-.2-.21-.19-.42-.38-.44-.36c-.29-.25-.6-.46-.9-.69A18.43,18.43,0,0,0,22.68,2,16.25,16.25,0,0,0,18.48.38,17.11,17.11,0,0,0,16.27.06c-.37,0-.74,0-1.11-.06H14.6c-.19,0-.37,0-.56,0A14.81,14.81,0,0,0,9.72.88a12.76,12.76,0,0,0-2,.92c-.31.19-.63.37-.92.59l-.44.32-.42.35-.21.17-.2.19-.39.37-.75.77L4,4.95c-.12.13-.24.26-.35.4l-.34.42L3.18,6,3,6.19c-.21.29-.42.57-.6.87l-.29.45C2,7.66,2,7.82,1.88,8l-.25.47-.21.49c-.15.32-.25.66-.37,1a19.82,19.82,0,0,0-.9,4A24.72,24.72,0,0,0,0,18a25.58,25.58,0,0,0,.53,3.89l.22.94.26.93c.08.31.19.61.29.91l.15.45c.05.15.11.29.17.44s.22.59.35.87l.39.85c.12.28.28.55.42.83l.21.41.22.4c.58,1.06,1.21,2.08,1.83,3.07.33.48.63,1,1,1.44l.49.7.5.68c.33.46.68.89,1,1.32.17.22.35.42.53.63s.35.42.53.61l1.07,1.18.52.58.26.29.27.27,1.05,1.08.52.53.53.5,1,1c.34.32.7.62,1,.92,1.36,1.21,2.71,2.26,4,3.21s2.42,1.8,3.49,2.55a18,18,0,0,0,3,1.72c.23.1.46.18.68.27s.43.17.64.23l.59.18.27.08.26.06.9.21.66.11.54.09-.54-.1-.66-.12-.9-.22-.26-.06-.27-.09-.58-.19c-.21-.06-.41-.15-.63-.24s-.44-.17-.67-.28a17.93,17.93,0,0,1-3-1.75,93.36,93.36,0,0,1-7.37-5.84c-.33-.31-.69-.61-1-.93l-1-1L13,41.07l-.51-.53-1-1.09-.27-.28-.26-.29-.52-.58L9.32,37.12c-.18-.2-.34-.41-.52-.61s-.35-.41-.52-.63c-.33-.43-.68-.86-1-1.32l-.49-.68-.48-.7c-.33-.46-.63-1-.94-1.44-.61-1-1.22-2-1.79-3.06l-.22-.4-.2-.4c-.13-.27-.28-.53-.41-.81l-.37-.83c-.12-.28-.22-.57-.34-.86s-.11-.29-.16-.43l-.15-.44c-.09-.3-.2-.59-.28-.89l-.25-.91L1,21.77a25.5,25.5,0,0,1-.5-3.82A24.55,24.55,0,0,1,.63,14a19.56,19.56,0,0,1,.9-3.92c.12-.32.21-.65.36-1l.2-.46.24-.45c.08-.15.15-.3.25-.44l.28-.43c.18-.29.39-.56.59-.84l.15-.21.16-.2.33-.4c.11-.14.23-.26.34-.39l.35-.39.73-.75.38-.36.19-.18.2-.16.4-.33.42-.3c.28-.21.59-.38.88-.56A12.44,12.44,0,0,1,9.91,1.4a15.66,15.66,0,0,1,12.5,1.06,17.67,17.67,0,0,1,1.86,1.15c.29.22.59.43.87.67l.42.35L26,5l.2.18.19.19.39.39.36.41.18.2.17.21.34.42.32.45.16.22.15.23.29.46c.18.31.35.64.51,1a11.08,11.08,0,0,0,.55,1c.05.08.12.17.18.25l.21.24a1.76,1.76,0,0,0,.26.21l.15.09.16.07a.77.77,0,0,0,.16.05l.17,0a2.49,2.49,0,0,0,.34,0h.24l.11,0a1.35,1.35,0,0,0,.32-.16,3.78,3.78,0,0,0,.48-.37c.15-.13.28-.27.42-.4s.52-.56.76-.85q.73-.87,1.39-1.78c.22-.31.43-.62.64-.94a10,10,0,0,1,.64-.87,11.42,11.42,0,0,1,1.54-1.54,13,13,0,0,1,8-2.94,14.1,14.1,0,0,1,2.15.11l.27,0,.27,0,.53.09.52.12.52.13a18.81,18.81,0,0,1,4,1.6l.92.53.89.57A12.62,12.62,0,0,1,57.57,6a12.24,12.24,0,0,1,1.35,1.57A12.86,12.86,0,0,1,60,9.31a14.58,14.58,0,0,1,.78,1.9,16.77,16.77,0,0,1,.51,2,20.85,20.85,0,0,1,.39,4q0,1-.07,2c-.05.66-.13,1.31-.23,2S61.12,22.4,61,23l-.12.46-.14.46c-.09.31-.18.62-.28.92A30.17,30.17,0,0,1,59,28.35a34.45,34.45,0,0,1-1.79,3.18c-.65,1-1.32,2-2,2.89-.35.47-.72.9-1.08,1.34-.18.22-.37.43-.55.64s-.36.43-.56.63c-1.49,1.66-3,3.16-4.51,4.55s-3,2.6-4.43,3.71a51.17,51.17,0,0,1-7.86,5.13A21.23,21.23,0,0,1,33,51.77a10.27,10.27,0,0,1-2.51.5,5.44,5.44,0,0,1-1.58-.12L28.5,52Z"/><path class="cls-1" d="M31.38,52.17l0,.11a.68.68,0,0,0,0,.14c0,.06,0,.12,0,.19a5.67,5.67,0,0,0,0,1.21,10.67,10.67,0,0,0,.25,1.68,7.42,7.42,0,0,0,.27.93v0h0l-.21,0-.5,0a1.59,1.59,0,0,1-.77-.15l-.07,0-.06-.06A.81.81,0,0,1,30,56a1.87,1.87,0,0,1-.18-.32,2.37,2.37,0,0,1-.11-.71c0-.47,0-.88.06-1.17s0-.26,0-.34a1.15,1.15,0,0,0,0-.12l0,.11c0,.07-.06.18-.1.32A6.38,6.38,0,0,0,29.38,55a2.37,2.37,0,0,0,0,.86,2.06,2.06,0,0,0,.2.46,1.3,1.3,0,0,0,.16.22l.1.1.11.09.12.07.13.06a1.82,1.82,0,0,0,.27.08A2.83,2.83,0,0,0,31,57l.47,0h.21l.06,0,.25.08.06,0,.07,0,.15.06.62.27-.17-.32-.17-.33-.16-.34-.08-.17-.05-.14c-.11-.29-.21-.58-.3-.87-.18-.58-.31-1.12-.42-1.6a9.91,9.91,0,0,1-.19-1.15,1.74,1.74,0,0,1,0-.19.89.89,0,0,1,0-.14Z"/><path class="cls-1" d="M30.21,56.62a.9.9,0,0,0-.14-.17,1.08,1.08,0,0,0-.54-.25,3.26,3.26,0,0,0-.82,0l-.45,0-.46,0-.45,0a3.48,3.48,0,0,1-.43,0,2.1,2.1,0,0,1-.73-.19,1.87,1.87,0,0,1-.26-.16,0,0,0,0,1,0,0l0-.05,0-.06,0,0v0h0l0,0h0a.07.07,0,0,1,0,0v.07l0,.06a.11.11,0,0,0,0,0,.13.13,0,0,1,0,0,.28.28,0,0,1,0-.06.11.11,0,0,1,0,0,.17.17,0,0,1,0,0h0v0a.33.33,0,0,1,0,.06s0,0,0,.07,0,0,0,0l0,0a1.44,1.44,0,0,0,.25.22,1.85,1.85,0,0,0,.78.3,3,3,0,0,0,.47,0l.48,0,.47-.05.45-.06a4.85,4.85,0,0,1,.78-.06,1,1,0,0,1,.7.25Z"/><path class="cls-1" d="M28,51.9V52a.66.66,0,0,1,0,.15,1.4,1.4,0,0,1-.2.46c-.11.18-.26.37-.43.59l-.26.33-.27.34-.26.35c-.09.11-.16.24-.24.36a5.28,5.28,0,0,0-.39.68,2.24,2.24,0,0,0-.18.54,1.14,1.14,0,0,0,0,.16V56l0,0,.09-.12c.08-.1.21-.24.36-.4s.33-.34.52-.55.19-.21.29-.32l.28-.35.26-.37c.09-.12.16-.25.23-.38a2.92,2.92,0,0,0,.31-.75,1.09,1.09,0,0,0,0-.59A.53.53,0,0,0,28,51.9Z"/><path class="cls-4" d="M4.57,10.54A8.68,8.68,0,0,1,7.28,6.44c2.78-2.46,7-2.69,10.5-1.89,3.31.77,5.63,3.12,7.68,5.67a11.67,11.67,0,0,0,3.24,3.1c1.55.87,3.26.29,4.67-.58a22.11,22.11,0,0,0,4.23-4,11.1,11.1,0,0,1,4.89-3.28A13.74,13.74,0,0,1,53.54,7.22,11.68,11.68,0,0,1,59,16a6,6,0,0,1-.29,4.62,2.52,2.52,0,0,1-2.85,1A3.57,3.57,0,0,1,53.07,19c-.43-1.39-.39-2.94-1.05-4.26a12,12,0,0,0-3.78-4.33A8,8,0,0,0,43.1,9.08a7.17,7.17,0,0,0-2.26.1l-.16,0a8,8,0,0,0-3.07,1.08l-.09,0-.17.18,0,0a1.14,1.14,0,0,0-.47.52,17.14,17.14,0,0,1-3,2.68,5.93,5.93,0,0,1-4.52,1,7.13,7.13,0,0,1-3.44-2.34l-.36-.4-.1,0a3.11,3.11,0,0,0-.4-.52,8.32,8.32,0,0,0-.91-.86A10.52,10.52,0,0,0,15.51,7c-2.14.15-3.85,1.93-5.34,3.31-1.11,1-2.36,2.3-3.86,2.71a1.54,1.54,0,0,1-1.53-.43C4.27,12.09,4.42,11.16,4.57,10.54Z"/><path class="cls-5" d="M13.11,31.49a35.51,35.51,0,0,0,10,7A15.57,15.57,0,0,0,28.52,40a13.32,13.32,0,0,0,5.72-1,38.8,38.8,0,0,0,10.91-7c2.7-2.33,5-5.35,5.61-9a9.53,9.53,0,0,0-.48-5.15,6.17,6.17,0,0,0-1-1.61A6.45,6.45,0,0,0,46.65,14,6.16,6.16,0,0,0,43.21,13,2.6,2.6,0,0,0,42,13a7.33,7.33,0,0,0-2.62,1.21,48,48,0,0,1-5.56,3.69,8.7,8.7,0,0,1-6.32.59A29.87,29.87,0,0,1,21.87,16c-2.7-1.41-6.13-3.2-9.26-2.4-3.43.88-4.58,4.72-4.34,8A15.72,15.72,0,0,0,13.11,31.49Z"/><path class="cls-1" d="M31.95,52.89s-.29.05-.83.12c-.27,0-.6.07-1,.08a7.57,7.57,0,0,1-1.35,0,3.05,3.05,0,0,1-.76-.19,1.52,1.52,0,0,1-.36-.21,1,1,0,0,1-.15-.15l-.06-.08,0-.07,0-.07v0h.14l.1,0a3.76,3.76,0,0,1,.47.11,4.89,4.89,0,0,0,1,.23,18.48,18.48,0,0,0,2.25.06c.79,0,1.63-.08,2.49-.14a26.9,26.9,0,0,1,2.7-.06,11.89,11.89,0,0,1,2.84.43l.36.1.36.12.72.25q.72.26,1.43.58a7.92,7.92,0,0,1,2.59,1.76,4.54,4.54,0,0,1,.83,1.35,1.51,1.51,0,0,1,.1.75.77.77,0,0,1-.41.55,2,2,0,0,1-.75.2,4.79,4.79,0,0,1-.82,0,11.83,11.83,0,0,1-1.66-.28c-.55-.13-1.11-.28-1.64-.46a8.47,8.47,0,0,1-.8-.3c-.27-.1-.52-.23-.79-.35-1-.49-2.1-1-3.12-1.51a22.09,22.09,0,0,1-2.19-1.31L33,54l-.5-.39c-.33-.26-.61-.58-1-.84l-.17.23a11.7,11.7,0,0,0,1.51,1c1,.56,2.05,1,3.06,1.48.5.24,1,.5,1.46.77a10.6,10.6,0,0,1,1.33.93,15,15,0,0,1,2.19,2.29l.24.3.25.31c.17.2.33.39.49.59a4.09,4.09,0,0,1,.41.62,1.6,1.6,0,0,1,.2.67A1.16,1.16,0,0,1,41.9,63a1.47,1.47,0,0,1-.66.1,3.28,3.28,0,0,1-.68-.11,7.35,7.35,0,0,1-1.27-.49,12.27,12.27,0,0,1-1.15-.64,10.93,10.93,0,0,1-1-.75l-.45-.42a5.52,5.52,0,0,1-.42-.43,15.91,15.91,0,0,1-1.39-1.76c-.4-.58-.76-1.14-1.09-1.65l-.91-1.41-.7-1.16c-.19-.34-.31-.66-.43-.9a3.34,3.34,0,0,0-.3-.54l-.14-.16.13.17a3.43,3.43,0,0,1,.29.54c.11.25.22.56.42.91l.68,1.17.89,1.43c.32.52.67,1.08,1.07,1.67a15.38,15.38,0,0,0,1.38,1.79,5.12,5.12,0,0,0,.42.44l.45.43a11,11,0,0,0,1,.77,11.88,11.88,0,0,0,1.16.66,7.32,7.32,0,0,0,1.3.51,3.58,3.58,0,0,0,.72.12,1.72,1.72,0,0,0,.75-.11,1.24,1.24,0,0,0,.65-.72,1.26,1.26,0,0,0,.06-.19c0-.06,0-.13,0-.19a1.1,1.1,0,0,0,0-.2,1.86,1.86,0,0,0-.22-.76,4.62,4.62,0,0,0-.42-.66c-.16-.21-.33-.4-.49-.6l-.24-.3-.24-.31a15.09,15.09,0,0,0-2.22-2.34,10.78,10.78,0,0,0-1.36-1c-.48-.29-1-.54-1.48-.79-1-.49-2.05-.94-3-1.49a11.85,11.85,0,0,1-1.47-1l-.17.23c.33.24.62.56,1,.84l.51.4c.17.13.35.25.53.38a21.85,21.85,0,0,0,2.22,1.33c1,.54,2.09,1,3.14,1.51.27.12.52.25.79.35a8.72,8.72,0,0,0,.82.31c.56.19,1.11.33,1.67.46a11.74,11.74,0,0,0,1.7.28,4.9,4.9,0,0,0,.87,0,2.18,2.18,0,0,0,.86-.24,1.15,1.15,0,0,0,.36-.31,1,1,0,0,0,.19-.44,1.74,1.74,0,0,0-.11-.88A4.77,4.77,0,0,0,45,55.54a8.09,8.09,0,0,0-2.68-1.81c-.48-.21-1-.41-1.45-.58l-.72-.25-.36-.12-.37-.1a12.06,12.06,0,0,0-2.89-.41,27.06,27.06,0,0,0-2.72.09c-.87.06-1.7.13-2.49.16a19,19,0,0,1-2.24,0,4.91,4.91,0,0,1-1-.22,3.66,3.66,0,0,0-.48-.11h-.39s0,0,0,0l.05.13.07.13.07.1a1.08,1.08,0,0,0,.17.16,1.55,1.55,0,0,0,.38.21,3.3,3.3,0,0,0,.79.19,7.47,7.47,0,0,0,1.35,0c.4,0,.73-.06,1-.1C31.66,53,31.95,52.89,31.95,52.89Z"/><path class="cls-1" d="M31.41,52.84l.16-.06.19-.06a1.51,1.51,0,0,1,.27-.05,3.76,3.76,0,0,1,1.79.29c.37.14.77.32,1.2.53l.67.33.71.37a25.66,25.66,0,0,1,3.12,2l.41.31.4.34.4.34.39.38c.13.13.27.25.39.39l.37.42c.25.28.48.58.73.88A14.55,14.55,0,0,1,45,63.4c.08.19.13.4.19.6l.18.61.19.63.2.62c.07.21.14.42.22.62s.15.42.25.62l.27.61.31.6a6.39,6.39,0,0,0,.35.58l.18.29c.06.1.13.18.2.27s.27.37.42.54l.47.5a5.33,5.33,0,0,0,.5.47q.26.22.54.42a11.51,11.51,0,0,0,1.16.74,9,9,0,0,0,2.56,1,4.73,4.73,0,0,0,1.38.08,3.63,3.63,0,0,0,.69-.14,2.84,2.84,0,0,0,.63-.3,3.26,3.26,0,0,0,1-.94,3.07,3.07,0,0,0,.33-.61,3.39,3.39,0,0,0,.2-.65,4.86,4.86,0,0,0-1.8-4.63,3.83,3.83,0,0,0-1.09-.6,2.84,2.84,0,0,0-1.21-.14,3.49,3.49,0,0,0-1.14.31,4.36,4.36,0,0,0-1,.61,4,4,0,0,0-.75.81,2.53,2.53,0,0,0-.42,1,1.93,1.93,0,0,0,.11,1,2.29,2.29,0,0,0,.54.81,3.54,3.54,0,0,0,1.55.85,3.9,3.9,0,0,0,.8.13,3.22,3.22,0,0,0,.75,0,1.86,1.86,0,0,0,.65-.24,1,1,0,0,0,.41-.49,1.1,1.1,0,0,0,0-.57,2,2,0,0,0-.16-.47,1.07,1.07,0,0,0-.54-.55,1.22,1.22,0,0,0-.47-.08h0a1.22,1.22,0,0,1,.47.09,1,1,0,0,1,.51.55,1.92,1.92,0,0,1,.14.47,1.05,1.05,0,0,1-.05.54.94.94,0,0,1-.39.44,1.75,1.75,0,0,1-.63.22,3.52,3.52,0,0,1-1.5-.12,3.43,3.43,0,0,1-1.48-.84,2.19,2.19,0,0,1-.5-.76,1.75,1.75,0,0,1-.09-.94,2.34,2.34,0,0,1,.4-.91,3.84,3.84,0,0,1,.72-.76,4.21,4.21,0,0,1,.92-.58,3.29,3.29,0,0,1,1.07-.28,2.62,2.62,0,0,1,1.11.14,3.62,3.62,0,0,1,1,.57A4.6,4.6,0,0,1,57.1,70.5a3.26,3.26,0,0,1-.19.6,2.9,2.9,0,0,1-.3.55,3,3,0,0,1-.92.86,2.56,2.56,0,0,1-.57.27,3.33,3.33,0,0,1-.62.13,4.42,4.42,0,0,1-1.3-.08,8.54,8.54,0,0,1-2.47-1,10.65,10.65,0,0,1-1.13-.72c-.18-.13-.36-.27-.53-.41a5,5,0,0,1-.48-.45l-.45-.48c-.14-.17-.27-.35-.41-.52s-.14-.17-.2-.27l-.18-.28c-.11-.19-.25-.37-.34-.56l-.31-.58-.27-.6c-.09-.2-.16-.4-.24-.61S46,66,46,65.78l-.21-.62-.19-.62-.19-.62a6.35,6.35,0,0,0-.2-.61,14.57,14.57,0,0,0-2.44-4.25c-.25-.3-.49-.6-.74-.88l-.38-.42c-.12-.14-.26-.26-.4-.39l-.4-.38-.41-.34L40,56.31l-.42-.3a24.82,24.82,0,0,0-3.17-1.92l-.72-.36L35,53.42c-.43-.2-.84-.38-1.21-.51A3.82,3.82,0,0,0,32,52.66a1.55,1.55,0,0,0-.27.06.89.89,0,0,0-.19.06Z"/><path class="cls-1" d="M31.29,53a.5.5,0,0,1,.31,0,2.36,2.36,0,0,1,.78.42,18,18,0,0,1,2.31,2.22l.17.19L35,56l.37.37.19.19.17.21.36.43c.06.07.12.15.17.23l.16.24.17.24.09.12.07.13.3.52.08.13.07.14.13.28a11.4,11.4,0,0,1,.48,1.15c.07.2.12.41.19.61l.09.31c0,.1,0,.21.07.31l.14.63c0,.22.09.44.14.65.1.43.21.86.3,1.29a6.42,6.42,0,0,1,.16,2.56,2.9,2.9,0,0,1-.48,1.13,2.37,2.37,0,0,1-.89.78,2.51,2.51,0,0,1-3-.65c-.06-.06-.1-.14-.15-.21a.73.73,0,0,1-.06-.1l-.05-.11a4.26,4.26,0,0,1-.17-.47,2.45,2.45,0,0,1-.12-.91.89.89,0,0,1,.12-.39.59.59,0,0,1,.29-.24,1.07,1.07,0,0,1,.71,0,1.47,1.47,0,0,1,.53.33,1.22,1.22,0,0,1,.4.77A.75.75,0,0,1,36,67,.81.81,0,0,0,36,66.7a1.25,1.25,0,0,0-.38-.81,1.51,1.51,0,0,0-.54-.37,1.11,1.11,0,0,0-.37-.07,1.08,1.08,0,0,0-.41.06.69.69,0,0,0-.35.27,1,1,0,0,0-.16.44,2.52,2.52,0,0,0,.1,1,3.53,3.53,0,0,0,.17.49l.05.12a.75.75,0,0,0,.08.12,2.33,2.33,0,0,0,.16.23,2.6,2.6,0,0,0,.88.73,2.74,2.74,0,0,0,1.18.3,2.62,2.62,0,0,0,1.24-.27,2.68,2.68,0,0,0,1-.86,3.14,3.14,0,0,0,.54-1.23,6.77,6.77,0,0,0-.15-2.68c-.1-.44-.21-.87-.31-1.29-.05-.21-.1-.43-.14-.64l-.15-.65c0-.11,0-.22-.08-.32l-.1-.31c-.07-.21-.12-.42-.2-.62a12.21,12.21,0,0,0-.5-1.18l-.14-.28-.07-.14-.08-.13L37,58.05l-.08-.13-.09-.12-.18-.24-.17-.24a2.17,2.17,0,0,0-.18-.23l-.37-.43-.18-.21-.2-.19-.38-.37L35,55.72l-.18-.18a16.62,16.62,0,0,0-2.39-2.15,2.42,2.42,0,0,0-.81-.39A.52.52,0,0,0,31.29,53Z"/><path class="cls-6" d="M40.4,6.7c.82-1.08,2.3-1.26,3.56-1.32a13.38,13.38,0,0,1,5.5,1c3.3,1.29,6.65,3.85,7.42,7.5a.52.52,0,0,1-1,.19c-.65-3.1-3.49-5.32-6.25-6.52a18.26,18.26,0,0,0-2.3-.82,13.15,13.15,0,0,0-2.63-.35c-1-.08-2.73,0-3.42.85C40.86,7.82,40,7.24,40.4,6.7Z"/><path class="cls-6" d="M6.37,7.84A6.5,6.5,0,0,1,8.91,5.31a9.36,9.36,0,0,1,4.23-1,10.34,10.34,0,0,1,2.29,0c.79.12,1.55.37,2.33.53a7.39,7.39,0,0,1,3.33,1.32c.51.43-.07,1.29-.58.86a6.11,6.11,0,0,0-2.83-1.15c-.6-.11-1.19-.28-1.78-.42a7.83,7.83,0,0,0-2.3-.1c-2.29.13-5.08.55-6.24,2.85C7.06,8.77,6.07,8.43,6.37,7.84Z"/></g></g></svg>