<svg xmlns="http://www.w3.org/2000/svg" xmlns:xlink="http://www.w3.org/1999/xlink" viewBox="0 0 670.94 172.14"><defs><style>.cls-1,.cls-7{fill:none;}.cls-2{clip-path:url(#clip-path);}.cls-3{opacity:0.7;}.cls-4{clip-path:url(#clip-path-2);}.cls-5{fill:#fff;}.cls-6{fill:#a2a18d;}.cls-7{stroke:#fffffd;stroke-miterlimit:10;stroke-width:0.38px;stroke-dasharray:1.89 1.89;}</style><clipPath id="clip-path" transform="translate(-41.78 -142.89)"><rect class="cls-1" x="0.29" y="0.23" width="724.8" height="407.7"/></clipPath><clipPath id="clip-path-2" transform="translate(-41.78 -142.89)"><rect class="cls-1" x="41.59" y="142.04" width="670.94" height="172.14"/></clipPath></defs><title>跑道</title><g id="图层_2" data-name="图层 2"><g id="图层_1-2" data-name="图层 1"><g class="cls-2"><g class="cls-3"><g class="cls-4"><path class="cls-5" d="M377.25,142.89C192,142.89,41.78,181.43,41.78,229S192,315,377.25,315,712.72,276.5,712.72,229s-150.2-86.07-335.47-86.07M375.11,244c-62.94,1.86-114.36-9.75-114.84-25.94s50.16-30.82,113.1-32.68,114.36,9.75,114.84,25.94S438.05,242.15,375.11,244" transform="translate(-41.78 -142.89)"/></g></g><path class="cls-6" d="M372.55,177.1c-77.92,1.52-140.74,20.21-140.32,41.75s63.92,37.77,141.84,36.25,140.74-20.21,140.32-41.75-63.92-37.77-141.84-36.25m1.32,71.14c-67.43,1.8-122.49-11.53-123-29.78S304.67,184,372.1,182.15s122.49,11.53,123,29.78-53.78,34.51-121.21,36.31" transform="translate(-41.78 -142.89)"/><ellipse class="cls-7" cx="371.38" cy="216.1" rx="130.7" ry="36.41" transform="translate(-45.76 -135.9) rotate(-1.07)"/><path class="cls-6" d="M551.4,216.76c-.89-27.52-81.35-47.24-179.7-44s-177.36,28.1-176.47,55.62,81.35,47.24,179.7,44,177.36-28.1,176.47-55.62M374.71,263.41c-88.08,2.2-160-15.9-160.59-40.43s70.29-46.2,158.38-48.4,160,15.9,160.59,40.43-70.29,46.2-158.38,48.4" transform="translate(-41.78 -142.89)"/><ellipse class="cls-7" cx="372.75" cy="220.68" rx="168.08" ry="47.44" transform="translate(-48.01 -132.02) rotate(-1.66)"/><path class="cls-6" d="M371,163.61C250.89,165.7,154,197,154.61,233.56S253.06,298,373.17,296s217-33.4,216.39-69.95S491.11,161.53,371,163.61m3.19,121.76C263.36,287.74,173,263.21,172.31,230.58s88.65-61,199.49-63.37S573,189.37,573.68,222,485,283,374.19,285.37" transform="translate(-41.78 -142.89)"/><ellipse class="cls-7" cx="371.42" cy="228.22" rx="209.11" ry="62.73" transform="translate(-45.99 -135.89) rotate(-1.07)"/></g></g></g></svg>